<?xml version="1.0" encoding="utf-8" standalone="no"?>
<!DOCTYPE svg PUBLIC "-//W3C//DTD SVG 1.1//EN"
  "http://www.w3.org/Graphics/SVG/1.1/DTD/svg11.dtd">
<svg xmlns:xlink="http://www.w3.org/1999/xlink" width="615.34375pt" height="295.31625pt" viewBox="0 0 615.34375 295.31625" xmlns="http://www.w3.org/2000/svg" version="1.1">
 <metadata>
  <rdf:RDF xmlns:dc="http://purl.org/dc/elements/1.1/" xmlns:cc="http://creativecommons.org/ns#" xmlns:rdf="http://www.w3.org/1999/02/22-rdf-syntax-ns#">
   <cc:Work>
    <dc:type rdf:resource="http://purl.org/dc/dcmitype/StillImage"/>
    <dc:date>2022-07-31T10:39:27.822399</dc:date>
    <dc:format>image/svg+xml</dc:format>
    <dc:creator>
     <cc:Agent>
      <dc:title>Matplotlib v3.5.1, https://matplotlib.org/</dc:title>
     </cc:Agent>
    </dc:creator>
   </cc:Work>
  </rdf:RDF>
 </metadata>
 <defs>
  <style type="text/css">*{stroke-linejoin: round; stroke-linecap: butt}</style>
 </defs>
 <g id="figure_1">
  <g id="patch_1">
   <path d="M 0 295.31625 
L 615.34375 295.31625 
L 615.34375 0 
L 0 0 
z
" style="fill: #ffffff"/>
  </g>
  <g id="axes_1">
   <g id="patch_2">
    <path d="M 50.14375 257.76 
L 303.780114 257.76 
L 303.780114 36 
L 50.14375 36 
z
" style="fill: #ffffff"/>
   </g>
   <g id="matplotlib.axis_1">
    <g id="xtick_1">
     <g id="line2d_1">
      <defs>
       <path id="m66c4e3cf6d" d="M 0 0 
L 0 3.5 
" style="stroke: #000000; stroke-width: 1.2"/>
      </defs>
      <g>
       <use xlink:href="#m66c4e3cf6d" x="61.672676" y="257.76" style="stroke: #000000; stroke-width: 1.2"/>
      </g>
     </g>
     <g id="text_1">
      <!-- 0 -->
      <g transform="translate(58.491426 272.358437)scale(0.1 -0.1)">
       <defs>
        <path id="DejaVuSans-30" d="M 2034 4250 
Q 1547 4250 1301 3770 
Q 1056 3291 1056 2328 
Q 1056 1369 1301 889 
Q 1547 409 2034 409 
Q 2525 409 2770 889 
Q 3016 1369 3016 2328 
Q 3016 3291 2770 3770 
Q 2525 4250 2034 4250 
z
M 2034 4750 
Q 2819 4750 3233 4129 
Q 3647 3509 3647 2328 
Q 3647 1150 3233 529 
Q 2819 -91 2034 -91 
Q 1250 -91 836 529 
Q 422 1150 422 2328 
Q 422 3509 836 4129 
Q 1250 4750 2034 4750 
z
" transform="scale(0.015625)"/>
       </defs>
       <use xlink:href="#DejaVuSans-30"/>
      </g>
     </g>
    </g>
    <g id="xtick_2">
     <g id="line2d_2">
      <g>
       <use xlink:href="#m66c4e3cf6d" x="119.317304" y="257.76" style="stroke: #000000; stroke-width: 1.2"/>
      </g>
     </g>
     <g id="text_2">
      <!-- 5 -->
      <g transform="translate(116.136054 272.358437)scale(0.1 -0.1)">
       <defs>
        <path id="DejaVuSans-35" d="M 691 4666 
L 3169 4666 
L 3169 4134 
L 1269 4134 
L 1269 2991 
Q 1406 3038 1543 3061 
Q 1681 3084 1819 3084 
Q 2600 3084 3056 2656 
Q 3513 2228 3513 1497 
Q 3513 744 3044 326 
Q 2575 -91 1722 -91 
Q 1428 -91 1123 -41 
Q 819 9 494 109 
L 494 744 
Q 775 591 1075 516 
Q 1375 441 1709 441 
Q 2250 441 2565 725 
Q 2881 1009 2881 1497 
Q 2881 1984 2565 2268 
Q 2250 2553 1709 2553 
Q 1456 2553 1204 2497 
Q 953 2441 691 2322 
L 691 4666 
z
" transform="scale(0.015625)"/>
       </defs>
       <use xlink:href="#DejaVuSans-35"/>
      </g>
     </g>
    </g>
    <g id="xtick_3">
     <g id="line2d_3">
      <g>
       <use xlink:href="#m66c4e3cf6d" x="176.961932" y="257.76" style="stroke: #000000; stroke-width: 1.2"/>
      </g>
     </g>
     <g id="text_3">
      <!-- 10 -->
      <g transform="translate(170.599432 272.358437)scale(0.1 -0.1)">
       <defs>
        <path id="DejaVuSans-31" d="M 794 531 
L 1825 531 
L 1825 4091 
L 703 3866 
L 703 4441 
L 1819 4666 
L 2450 4666 
L 2450 531 
L 3481 531 
L 3481 0 
L 794 0 
L 794 531 
z
" transform="scale(0.015625)"/>
       </defs>
       <use xlink:href="#DejaVuSans-31"/>
       <use xlink:href="#DejaVuSans-30" x="63.623047"/>
      </g>
     </g>
    </g>
    <g id="xtick_4">
     <g id="line2d_4">
      <g>
       <use xlink:href="#m66c4e3cf6d" x="234.60656" y="257.76" style="stroke: #000000; stroke-width: 1.2"/>
      </g>
     </g>
     <g id="text_4">
      <!-- 15 -->
      <g transform="translate(228.24406 272.358437)scale(0.1 -0.1)">
       <use xlink:href="#DejaVuSans-31"/>
       <use xlink:href="#DejaVuSans-35" x="63.623047"/>
      </g>
     </g>
    </g>
    <g id="xtick_5">
     <g id="line2d_5">
      <g>
       <use xlink:href="#m66c4e3cf6d" x="292.251188" y="257.76" style="stroke: #000000; stroke-width: 1.2"/>
      </g>
     </g>
     <g id="text_5">
      <!-- 20 -->
      <g transform="translate(285.888688 272.358437)scale(0.1 -0.1)">
       <defs>
        <path id="DejaVuSans-32" d="M 1228 531 
L 3431 531 
L 3431 0 
L 469 0 
L 469 531 
Q 828 903 1448 1529 
Q 2069 2156 2228 2338 
Q 2531 2678 2651 2914 
Q 2772 3150 2772 3378 
Q 2772 3750 2511 3984 
Q 2250 4219 1831 4219 
Q 1534 4219 1204 4116 
Q 875 4013 500 3803 
L 500 4441 
Q 881 4594 1212 4672 
Q 1544 4750 1819 4750 
Q 2544 4750 2975 4387 
Q 3406 4025 3406 3419 
Q 3406 3131 3298 2873 
Q 3191 2616 2906 2266 
Q 2828 2175 2409 1742 
Q 1991 1309 1228 531 
z
" transform="scale(0.015625)"/>
       </defs>
       <use xlink:href="#DejaVuSans-32"/>
       <use xlink:href="#DejaVuSans-30" x="63.623047"/>
      </g>
     </g>
    </g>
    <g id="text_6">
     <!-- Noise Level -->
     <g transform="translate(148.302557 286.036562)scale(0.1 -0.1)">
      <defs>
       <path id="DejaVuSans-4e" d="M 628 4666 
L 1478 4666 
L 3547 763 
L 3547 4666 
L 4159 4666 
L 4159 0 
L 3309 0 
L 1241 3903 
L 1241 0 
L 628 0 
L 628 4666 
z
" transform="scale(0.015625)"/>
       <path id="DejaVuSans-6f" d="M 1959 3097 
Q 1497 3097 1228 2736 
Q 959 2375 959 1747 
Q 959 1119 1226 758 
Q 1494 397 1959 397 
Q 2419 397 2687 759 
Q 2956 1122 2956 1747 
Q 2956 2369 2687 2733 
Q 2419 3097 1959 3097 
z
M 1959 3584 
Q 2709 3584 3137 3096 
Q 3566 2609 3566 1747 
Q 3566 888 3137 398 
Q 2709 -91 1959 -91 
Q 1206 -91 779 398 
Q 353 888 353 1747 
Q 353 2609 779 3096 
Q 1206 3584 1959 3584 
z
" transform="scale(0.015625)"/>
       <path id="DejaVuSans-69" d="M 603 3500 
L 1178 3500 
L 1178 0 
L 603 0 
L 603 3500 
z
M 603 4863 
L 1178 4863 
L 1178 4134 
L 603 4134 
L 603 4863 
z
" transform="scale(0.015625)"/>
       <path id="DejaVuSans-73" d="M 2834 3397 
L 2834 2853 
Q 2591 2978 2328 3040 
Q 2066 3103 1784 3103 
Q 1356 3103 1142 2972 
Q 928 2841 928 2578 
Q 928 2378 1081 2264 
Q 1234 2150 1697 2047 
L 1894 2003 
Q 2506 1872 2764 1633 
Q 3022 1394 3022 966 
Q 3022 478 2636 193 
Q 2250 -91 1575 -91 
Q 1294 -91 989 -36 
Q 684 19 347 128 
L 347 722 
Q 666 556 975 473 
Q 1284 391 1588 391 
Q 1994 391 2212 530 
Q 2431 669 2431 922 
Q 2431 1156 2273 1281 
Q 2116 1406 1581 1522 
L 1381 1569 
Q 847 1681 609 1914 
Q 372 2147 372 2553 
Q 372 3047 722 3315 
Q 1072 3584 1716 3584 
Q 2034 3584 2315 3537 
Q 2597 3491 2834 3397 
z
" transform="scale(0.015625)"/>
       <path id="DejaVuSans-65" d="M 3597 1894 
L 3597 1613 
L 953 1613 
Q 991 1019 1311 708 
Q 1631 397 2203 397 
Q 2534 397 2845 478 
Q 3156 559 3463 722 
L 3463 178 
Q 3153 47 2828 -22 
Q 2503 -91 2169 -91 
Q 1331 -91 842 396 
Q 353 884 353 1716 
Q 353 2575 817 3079 
Q 1281 3584 2069 3584 
Q 2775 3584 3186 3129 
Q 3597 2675 3597 1894 
z
M 3022 2063 
Q 3016 2534 2758 2815 
Q 2500 3097 2075 3097 
Q 1594 3097 1305 2825 
Q 1016 2553 972 2059 
L 3022 2063 
z
" transform="scale(0.015625)"/>
       <path id="DejaVuSans-20" transform="scale(0.015625)"/>
       <path id="DejaVuSans-4c" d="M 628 4666 
L 1259 4666 
L 1259 531 
L 3531 531 
L 3531 0 
L 628 0 
L 628 4666 
z
" transform="scale(0.015625)"/>
       <path id="DejaVuSans-76" d="M 191 3500 
L 800 3500 
L 1894 563 
L 2988 3500 
L 3597 3500 
L 2284 0 
L 1503 0 
L 191 3500 
z
" transform="scale(0.015625)"/>
       <path id="DejaVuSans-6c" d="M 603 4863 
L 1178 4863 
L 1178 0 
L 603 0 
L 603 4863 
z
" transform="scale(0.015625)"/>
      </defs>
      <use xlink:href="#DejaVuSans-4e"/>
      <use xlink:href="#DejaVuSans-6f" x="74.804688"/>
      <use xlink:href="#DejaVuSans-69" x="135.986328"/>
      <use xlink:href="#DejaVuSans-73" x="163.769531"/>
      <use xlink:href="#DejaVuSans-65" x="215.869141"/>
      <use xlink:href="#DejaVuSans-20" x="277.392578"/>
      <use xlink:href="#DejaVuSans-4c" x="309.179688"/>
      <use xlink:href="#DejaVuSans-65" x="363.142578"/>
      <use xlink:href="#DejaVuSans-76" x="424.666016"/>
      <use xlink:href="#DejaVuSans-65" x="483.845703"/>
      <use xlink:href="#DejaVuSans-6c" x="545.369141"/>
     </g>
    </g>
   </g>
   <g id="matplotlib.axis_2">
    <g id="ytick_1">
     <g id="line2d_6">
      <defs>
       <path id="m8dafa23582" d="M 0 0 
L -3.5 0 
" style="stroke: #000000; stroke-width: 1.2"/>
      </defs>
      <g>
       <use xlink:href="#m8dafa23582" x="50.14375" y="247.68" style="stroke: #000000; stroke-width: 1.2"/>
      </g>
     </g>
     <g id="text_7">
      <!-- 1.00 -->
      <g transform="translate(20.878125 251.479219)scale(0.1 -0.1)">
       <defs>
        <path id="DejaVuSans-2e" d="M 684 794 
L 1344 794 
L 1344 0 
L 684 0 
L 684 794 
z
" transform="scale(0.015625)"/>
       </defs>
       <use xlink:href="#DejaVuSans-31"/>
       <use xlink:href="#DejaVuSans-2e" x="63.623047"/>
       <use xlink:href="#DejaVuSans-30" x="95.410156"/>
       <use xlink:href="#DejaVuSans-30" x="159.033203"/>
      </g>
     </g>
    </g>
    <g id="ytick_2">
     <g id="line2d_7">
      <g>
       <use xlink:href="#m8dafa23582" x="50.14375" y="221.327434" style="stroke: #000000; stroke-width: 1.2"/>
      </g>
     </g>
     <g id="text_8">
      <!-- 1.25 -->
      <g transform="translate(20.878125 225.126653)scale(0.1 -0.1)">
       <use xlink:href="#DejaVuSans-31"/>
       <use xlink:href="#DejaVuSans-2e" x="63.623047"/>
       <use xlink:href="#DejaVuSans-32" x="95.410156"/>
       <use xlink:href="#DejaVuSans-35" x="159.033203"/>
      </g>
     </g>
    </g>
    <g id="ytick_3">
     <g id="line2d_8">
      <g>
       <use xlink:href="#m8dafa23582" x="50.14375" y="194.974869" style="stroke: #000000; stroke-width: 1.2"/>
      </g>
     </g>
     <g id="text_9">
      <!-- 1.50 -->
      <g transform="translate(20.878125 198.774087)scale(0.1 -0.1)">
       <use xlink:href="#DejaVuSans-31"/>
       <use xlink:href="#DejaVuSans-2e" x="63.623047"/>
       <use xlink:href="#DejaVuSans-35" x="95.410156"/>
       <use xlink:href="#DejaVuSans-30" x="159.033203"/>
      </g>
     </g>
    </g>
    <g id="ytick_4">
     <g id="line2d_9">
      <g>
       <use xlink:href="#m8dafa23582" x="50.14375" y="168.622303" style="stroke: #000000; stroke-width: 1.2"/>
      </g>
     </g>
     <g id="text_10">
      <!-- 1.75 -->
      <g transform="translate(20.878125 172.421522)scale(0.1 -0.1)">
       <defs>
        <path id="DejaVuSans-37" d="M 525 4666 
L 3525 4666 
L 3525 4397 
L 1831 0 
L 1172 0 
L 2766 4134 
L 525 4134 
L 525 4666 
z
" transform="scale(0.015625)"/>
       </defs>
       <use xlink:href="#DejaVuSans-31"/>
       <use xlink:href="#DejaVuSans-2e" x="63.623047"/>
       <use xlink:href="#DejaVuSans-37" x="95.410156"/>
       <use xlink:href="#DejaVuSans-35" x="159.033203"/>
      </g>
     </g>
    </g>
    <g id="ytick_5">
     <g id="line2d_10">
      <g>
       <use xlink:href="#m8dafa23582" x="50.14375" y="142.269737" style="stroke: #000000; stroke-width: 1.2"/>
      </g>
     </g>
     <g id="text_11">
      <!-- 2.00 -->
      <g transform="translate(20.878125 146.068956)scale(0.1 -0.1)">
       <use xlink:href="#DejaVuSans-32"/>
       <use xlink:href="#DejaVuSans-2e" x="63.623047"/>
       <use xlink:href="#DejaVuSans-30" x="95.410156"/>
       <use xlink:href="#DejaVuSans-30" x="159.033203"/>
      </g>
     </g>
    </g>
    <g id="ytick_6">
     <g id="line2d_11">
      <g>
       <use xlink:href="#m8dafa23582" x="50.14375" y="115.917171" style="stroke: #000000; stroke-width: 1.2"/>
      </g>
     </g>
     <g id="text_12">
      <!-- 2.25 -->
      <g transform="translate(20.878125 119.71639)scale(0.1 -0.1)">
       <use xlink:href="#DejaVuSans-32"/>
       <use xlink:href="#DejaVuSans-2e" x="63.623047"/>
       <use xlink:href="#DejaVuSans-32" x="95.410156"/>
       <use xlink:href="#DejaVuSans-35" x="159.033203"/>
      </g>
     </g>
    </g>
    <g id="ytick_7">
     <g id="line2d_12">
      <g>
       <use xlink:href="#m8dafa23582" x="50.14375" y="89.564606" style="stroke: #000000; stroke-width: 1.2"/>
      </g>
     </g>
     <g id="text_13">
      <!-- 2.50 -->
      <g transform="translate(20.878125 93.363824)scale(0.1 -0.1)">
       <use xlink:href="#DejaVuSans-32"/>
       <use xlink:href="#DejaVuSans-2e" x="63.623047"/>
       <use xlink:href="#DejaVuSans-35" x="95.410156"/>
       <use xlink:href="#DejaVuSans-30" x="159.033203"/>
      </g>
     </g>
    </g>
    <g id="ytick_8">
     <g id="line2d_13">
      <g>
       <use xlink:href="#m8dafa23582" x="50.14375" y="63.21204" style="stroke: #000000; stroke-width: 1.2"/>
      </g>
     </g>
     <g id="text_14">
      <!-- 2.75 -->
      <g transform="translate(20.878125 67.011259)scale(0.1 -0.1)">
       <use xlink:href="#DejaVuSans-32"/>
       <use xlink:href="#DejaVuSans-2e" x="63.623047"/>
       <use xlink:href="#DejaVuSans-37" x="95.410156"/>
       <use xlink:href="#DejaVuSans-35" x="159.033203"/>
      </g>
     </g>
    </g>
    <g id="ytick_9">
     <g id="line2d_14">
      <g>
       <use xlink:href="#m8dafa23582" x="50.14375" y="36.859474" style="stroke: #000000; stroke-width: 1.2"/>
      </g>
     </g>
     <g id="text_15">
      <!-- 3.00 -->
      <g transform="translate(20.878125 40.658693)scale(0.1 -0.1)">
       <defs>
        <path id="DejaVuSans-33" d="M 2597 2516 
Q 3050 2419 3304 2112 
Q 3559 1806 3559 1356 
Q 3559 666 3084 287 
Q 2609 -91 1734 -91 
Q 1441 -91 1130 -33 
Q 819 25 488 141 
L 488 750 
Q 750 597 1062 519 
Q 1375 441 1716 441 
Q 2309 441 2620 675 
Q 2931 909 2931 1356 
Q 2931 1769 2642 2001 
Q 2353 2234 1838 2234 
L 1294 2234 
L 1294 2753 
L 1863 2753 
Q 2328 2753 2575 2939 
Q 2822 3125 2822 3475 
Q 2822 3834 2567 4026 
Q 2313 4219 1838 4219 
Q 1578 4219 1281 4162 
Q 984 4106 628 3988 
L 628 4550 
Q 988 4650 1302 4700 
Q 1616 4750 1894 4750 
Q 2613 4750 3031 4423 
Q 3450 4097 3450 3541 
Q 3450 3153 3228 2886 
Q 3006 2619 2597 2516 
z
" transform="scale(0.015625)"/>
       </defs>
       <use xlink:href="#DejaVuSans-33"/>
       <use xlink:href="#DejaVuSans-2e" x="63.623047"/>
       <use xlink:href="#DejaVuSans-30" x="95.410156"/>
       <use xlink:href="#DejaVuSans-30" x="159.033203"/>
      </g>
     </g>
    </g>
    <g id="text_16">
     <!-- Mean Relative 1-Sigma Prediction Interval -->
     <g transform="translate(14.798438 251.665937)rotate(-90)scale(0.1 -0.1)">
      <defs>
       <path id="DejaVuSans-4d" d="M 628 4666 
L 1569 4666 
L 2759 1491 
L 3956 4666 
L 4897 4666 
L 4897 0 
L 4281 0 
L 4281 4097 
L 3078 897 
L 2444 897 
L 1241 4097 
L 1241 0 
L 628 0 
L 628 4666 
z
" transform="scale(0.015625)"/>
       <path id="DejaVuSans-61" d="M 2194 1759 
Q 1497 1759 1228 1600 
Q 959 1441 959 1056 
Q 959 750 1161 570 
Q 1363 391 1709 391 
Q 2188 391 2477 730 
Q 2766 1069 2766 1631 
L 2766 1759 
L 2194 1759 
z
M 3341 1997 
L 3341 0 
L 2766 0 
L 2766 531 
Q 2569 213 2275 61 
Q 1981 -91 1556 -91 
Q 1019 -91 701 211 
Q 384 513 384 1019 
Q 384 1609 779 1909 
Q 1175 2209 1959 2209 
L 2766 2209 
L 2766 2266 
Q 2766 2663 2505 2880 
Q 2244 3097 1772 3097 
Q 1472 3097 1187 3025 
Q 903 2953 641 2809 
L 641 3341 
Q 956 3463 1253 3523 
Q 1550 3584 1831 3584 
Q 2591 3584 2966 3190 
Q 3341 2797 3341 1997 
z
" transform="scale(0.015625)"/>
       <path id="DejaVuSans-6e" d="M 3513 2113 
L 3513 0 
L 2938 0 
L 2938 2094 
Q 2938 2591 2744 2837 
Q 2550 3084 2163 3084 
Q 1697 3084 1428 2787 
Q 1159 2491 1159 1978 
L 1159 0 
L 581 0 
L 581 3500 
L 1159 3500 
L 1159 2956 
Q 1366 3272 1645 3428 
Q 1925 3584 2291 3584 
Q 2894 3584 3203 3211 
Q 3513 2838 3513 2113 
z
" transform="scale(0.015625)"/>
       <path id="DejaVuSans-52" d="M 2841 2188 
Q 3044 2119 3236 1894 
Q 3428 1669 3622 1275 
L 4263 0 
L 3584 0 
L 2988 1197 
Q 2756 1666 2539 1819 
Q 2322 1972 1947 1972 
L 1259 1972 
L 1259 0 
L 628 0 
L 628 4666 
L 2053 4666 
Q 2853 4666 3247 4331 
Q 3641 3997 3641 3322 
Q 3641 2881 3436 2590 
Q 3231 2300 2841 2188 
z
M 1259 4147 
L 1259 2491 
L 2053 2491 
Q 2509 2491 2742 2702 
Q 2975 2913 2975 3322 
Q 2975 3731 2742 3939 
Q 2509 4147 2053 4147 
L 1259 4147 
z
" transform="scale(0.015625)"/>
       <path id="DejaVuSans-74" d="M 1172 4494 
L 1172 3500 
L 2356 3500 
L 2356 3053 
L 1172 3053 
L 1172 1153 
Q 1172 725 1289 603 
Q 1406 481 1766 481 
L 2356 481 
L 2356 0 
L 1766 0 
Q 1100 0 847 248 
Q 594 497 594 1153 
L 594 3053 
L 172 3053 
L 172 3500 
L 594 3500 
L 594 4494 
L 1172 4494 
z
" transform="scale(0.015625)"/>
       <path id="DejaVuSans-2d" d="M 313 2009 
L 1997 2009 
L 1997 1497 
L 313 1497 
L 313 2009 
z
" transform="scale(0.015625)"/>
       <path id="DejaVuSans-53" d="M 3425 4513 
L 3425 3897 
Q 3066 4069 2747 4153 
Q 2428 4238 2131 4238 
Q 1616 4238 1336 4038 
Q 1056 3838 1056 3469 
Q 1056 3159 1242 3001 
Q 1428 2844 1947 2747 
L 2328 2669 
Q 3034 2534 3370 2195 
Q 3706 1856 3706 1288 
Q 3706 609 3251 259 
Q 2797 -91 1919 -91 
Q 1588 -91 1214 -16 
Q 841 59 441 206 
L 441 856 
Q 825 641 1194 531 
Q 1563 422 1919 422 
Q 2459 422 2753 634 
Q 3047 847 3047 1241 
Q 3047 1584 2836 1778 
Q 2625 1972 2144 2069 
L 1759 2144 
Q 1053 2284 737 2584 
Q 422 2884 422 3419 
Q 422 4038 858 4394 
Q 1294 4750 2059 4750 
Q 2388 4750 2728 4690 
Q 3069 4631 3425 4513 
z
" transform="scale(0.015625)"/>
       <path id="DejaVuSans-67" d="M 2906 1791 
Q 2906 2416 2648 2759 
Q 2391 3103 1925 3103 
Q 1463 3103 1205 2759 
Q 947 2416 947 1791 
Q 947 1169 1205 825 
Q 1463 481 1925 481 
Q 2391 481 2648 825 
Q 2906 1169 2906 1791 
z
M 3481 434 
Q 3481 -459 3084 -895 
Q 2688 -1331 1869 -1331 
Q 1566 -1331 1297 -1286 
Q 1028 -1241 775 -1147 
L 775 -588 
Q 1028 -725 1275 -790 
Q 1522 -856 1778 -856 
Q 2344 -856 2625 -561 
Q 2906 -266 2906 331 
L 2906 616 
Q 2728 306 2450 153 
Q 2172 0 1784 0 
Q 1141 0 747 490 
Q 353 981 353 1791 
Q 353 2603 747 3093 
Q 1141 3584 1784 3584 
Q 2172 3584 2450 3431 
Q 2728 3278 2906 2969 
L 2906 3500 
L 3481 3500 
L 3481 434 
z
" transform="scale(0.015625)"/>
       <path id="DejaVuSans-6d" d="M 3328 2828 
Q 3544 3216 3844 3400 
Q 4144 3584 4550 3584 
Q 5097 3584 5394 3201 
Q 5691 2819 5691 2113 
L 5691 0 
L 5113 0 
L 5113 2094 
Q 5113 2597 4934 2840 
Q 4756 3084 4391 3084 
Q 3944 3084 3684 2787 
Q 3425 2491 3425 1978 
L 3425 0 
L 2847 0 
L 2847 2094 
Q 2847 2600 2669 2842 
Q 2491 3084 2119 3084 
Q 1678 3084 1418 2786 
Q 1159 2488 1159 1978 
L 1159 0 
L 581 0 
L 581 3500 
L 1159 3500 
L 1159 2956 
Q 1356 3278 1631 3431 
Q 1906 3584 2284 3584 
Q 2666 3584 2933 3390 
Q 3200 3197 3328 2828 
z
" transform="scale(0.015625)"/>
       <path id="DejaVuSans-50" d="M 1259 4147 
L 1259 2394 
L 2053 2394 
Q 2494 2394 2734 2622 
Q 2975 2850 2975 3272 
Q 2975 3691 2734 3919 
Q 2494 4147 2053 4147 
L 1259 4147 
z
M 628 4666 
L 2053 4666 
Q 2838 4666 3239 4311 
Q 3641 3956 3641 3272 
Q 3641 2581 3239 2228 
Q 2838 1875 2053 1875 
L 1259 1875 
L 1259 0 
L 628 0 
L 628 4666 
z
" transform="scale(0.015625)"/>
       <path id="DejaVuSans-72" d="M 2631 2963 
Q 2534 3019 2420 3045 
Q 2306 3072 2169 3072 
Q 1681 3072 1420 2755 
Q 1159 2438 1159 1844 
L 1159 0 
L 581 0 
L 581 3500 
L 1159 3500 
L 1159 2956 
Q 1341 3275 1631 3429 
Q 1922 3584 2338 3584 
Q 2397 3584 2469 3576 
Q 2541 3569 2628 3553 
L 2631 2963 
z
" transform="scale(0.015625)"/>
       <path id="DejaVuSans-64" d="M 2906 2969 
L 2906 4863 
L 3481 4863 
L 3481 0 
L 2906 0 
L 2906 525 
Q 2725 213 2448 61 
Q 2172 -91 1784 -91 
Q 1150 -91 751 415 
Q 353 922 353 1747 
Q 353 2572 751 3078 
Q 1150 3584 1784 3584 
Q 2172 3584 2448 3432 
Q 2725 3281 2906 2969 
z
M 947 1747 
Q 947 1113 1208 752 
Q 1469 391 1925 391 
Q 2381 391 2643 752 
Q 2906 1113 2906 1747 
Q 2906 2381 2643 2742 
Q 2381 3103 1925 3103 
Q 1469 3103 1208 2742 
Q 947 2381 947 1747 
z
" transform="scale(0.015625)"/>
       <path id="DejaVuSans-63" d="M 3122 3366 
L 3122 2828 
Q 2878 2963 2633 3030 
Q 2388 3097 2138 3097 
Q 1578 3097 1268 2742 
Q 959 2388 959 1747 
Q 959 1106 1268 751 
Q 1578 397 2138 397 
Q 2388 397 2633 464 
Q 2878 531 3122 666 
L 3122 134 
Q 2881 22 2623 -34 
Q 2366 -91 2075 -91 
Q 1284 -91 818 406 
Q 353 903 353 1747 
Q 353 2603 823 3093 
Q 1294 3584 2113 3584 
Q 2378 3584 2631 3529 
Q 2884 3475 3122 3366 
z
" transform="scale(0.015625)"/>
       <path id="DejaVuSans-49" d="M 628 4666 
L 1259 4666 
L 1259 0 
L 628 0 
L 628 4666 
z
" transform="scale(0.015625)"/>
      </defs>
      <use xlink:href="#DejaVuSans-4d"/>
      <use xlink:href="#DejaVuSans-65" x="86.279297"/>
      <use xlink:href="#DejaVuSans-61" x="147.802734"/>
      <use xlink:href="#DejaVuSans-6e" x="209.082031"/>
      <use xlink:href="#DejaVuSans-20" x="272.460938"/>
      <use xlink:href="#DejaVuSans-52" x="304.248047"/>
      <use xlink:href="#DejaVuSans-65" x="369.230469"/>
      <use xlink:href="#DejaVuSans-6c" x="430.753906"/>
      <use xlink:href="#DejaVuSans-61" x="458.537109"/>
      <use xlink:href="#DejaVuSans-74" x="519.816406"/>
      <use xlink:href="#DejaVuSans-69" x="559.025391"/>
      <use xlink:href="#DejaVuSans-76" x="586.808594"/>
      <use xlink:href="#DejaVuSans-65" x="645.988281"/>
      <use xlink:href="#DejaVuSans-20" x="707.511719"/>
      <use xlink:href="#DejaVuSans-31" x="739.298828"/>
      <use xlink:href="#DejaVuSans-2d" x="802.921875"/>
      <use xlink:href="#DejaVuSans-53" x="839.005859"/>
      <use xlink:href="#DejaVuSans-69" x="902.482422"/>
      <use xlink:href="#DejaVuSans-67" x="930.265625"/>
      <use xlink:href="#DejaVuSans-6d" x="993.742188"/>
      <use xlink:href="#DejaVuSans-61" x="1091.154297"/>
      <use xlink:href="#DejaVuSans-20" x="1152.433594"/>
      <use xlink:href="#DejaVuSans-50" x="1184.220703"/>
      <use xlink:href="#DejaVuSans-72" x="1242.773438"/>
      <use xlink:href="#DejaVuSans-65" x="1281.636719"/>
      <use xlink:href="#DejaVuSans-64" x="1343.160156"/>
      <use xlink:href="#DejaVuSans-69" x="1406.636719"/>
      <use xlink:href="#DejaVuSans-63" x="1434.419922"/>
      <use xlink:href="#DejaVuSans-74" x="1489.400391"/>
      <use xlink:href="#DejaVuSans-69" x="1528.609375"/>
      <use xlink:href="#DejaVuSans-6f" x="1556.392578"/>
      <use xlink:href="#DejaVuSans-6e" x="1617.574219"/>
      <use xlink:href="#DejaVuSans-20" x="1680.953125"/>
      <use xlink:href="#DejaVuSans-49" x="1712.740234"/>
      <use xlink:href="#DejaVuSans-6e" x="1742.232422"/>
      <use xlink:href="#DejaVuSans-74" x="1805.611328"/>
      <use xlink:href="#DejaVuSans-65" x="1844.820312"/>
      <use xlink:href="#DejaVuSans-72" x="1906.34375"/>
      <use xlink:href="#DejaVuSans-76" x="1947.457031"/>
      <use xlink:href="#DejaVuSans-61" x="2006.636719"/>
      <use xlink:href="#DejaVuSans-6c" x="2067.916016"/>
     </g>
    </g>
   </g>
   <g id="LineCollection_1">
    <path d="M 73.201601 60.688491 
L 73.201601 46.08 
" clip-path="url(#pcc0f6ef577)" style="fill: none; stroke: #006ba4; stroke-width: 1.5"/>
    <path d="M 84.730527 176.826161 
L 84.730527 168.139199 
" clip-path="url(#pcc0f6ef577)" style="fill: none; stroke: #006ba4; stroke-width: 1.5"/>
    <path d="M 119.317304 226.690648 
L 119.317304 220.91945 
" clip-path="url(#pcc0f6ef577)" style="fill: none; stroke: #006ba4; stroke-width: 1.5"/>
    <path d="M 176.961932 234.790033 
L 176.961932 229.543384 
" clip-path="url(#pcc0f6ef577)" style="fill: none; stroke: #006ba4; stroke-width: 1.5"/>
    <path d="M 292.251188 237.659142 
L 292.251188 232.681142 
" clip-path="url(#pcc0f6ef577)" style="fill: none; stroke: #006ba4; stroke-width: 1.5"/>
   </g>
   <g id="LineCollection_2">
    <path d="M 61.672676 247.68 
L 292.251188 247.68 
" clip-path="url(#pcc0f6ef577)" style="fill: none; stroke-dasharray: 5.55,2.4; stroke-dashoffset: 0; stroke: #006ba4; stroke-width: 1.5"/>
   </g>
   <g id="line2d_15">
    <path d="M 73.201601 53.384245 
L 84.730527 172.48268 
L 119.317304 223.805049 
L 176.961932 232.166709 
L 292.251188 235.170142 
" clip-path="url(#pcc0f6ef577)" style="fill: none; stroke: #006ba4; stroke-width: 1.5"/>
   </g>
   <g id="patch_3">
    <path d="M 50.14375 257.76 
L 50.14375 36 
" style="fill: none; stroke: #000000; stroke-width: 1.5; stroke-linejoin: miter; stroke-linecap: square"/>
   </g>
   <g id="patch_4">
    <path d="M 303.780114 257.76 
L 303.780114 36 
" style="fill: none; stroke: #000000; stroke-width: 1.5; stroke-linejoin: miter; stroke-linecap: square"/>
   </g>
   <g id="patch_5">
    <path d="M 50.14375 257.76 
L 303.780114 257.76 
" style="fill: none; stroke: #000000; stroke-width: 1.5; stroke-linejoin: miter; stroke-linecap: square"/>
   </g>
   <g id="patch_6">
    <path d="M 50.14375 36 
L 303.780114 36 
" style="fill: none; stroke: #000000; stroke-width: 1.5; stroke-linejoin: miter; stroke-linecap: square"/>
   </g>
  </g>
  <g id="axes_2">
   <g id="patch_7">
    <path d="M 354.507386 257.76 
L 608.14375 257.76 
L 608.14375 36 
L 354.507386 36 
z
" style="fill: #ffffff"/>
   </g>
   <g id="matplotlib.axis_3">
    <g id="xtick_6">
     <g id="line2d_16">
      <g>
       <use xlink:href="#m66c4e3cf6d" x="366.036312" y="257.76" style="stroke: #000000; stroke-width: 1.2"/>
      </g>
     </g>
     <g id="text_17">
      <!-- 0 -->
      <g transform="translate(362.855062 272.358437)scale(0.1 -0.1)">
       <use xlink:href="#DejaVuSans-30"/>
      </g>
     </g>
    </g>
    <g id="xtick_7">
     <g id="line2d_17">
      <g>
       <use xlink:href="#m66c4e3cf6d" x="412.152014" y="257.76" style="stroke: #000000; stroke-width: 1.2"/>
      </g>
     </g>
     <g id="text_18">
      <!-- 2 -->
      <g transform="translate(408.970764 272.358437)scale(0.1 -0.1)">
       <use xlink:href="#DejaVuSans-32"/>
      </g>
     </g>
    </g>
    <g id="xtick_8">
     <g id="line2d_18">
      <g>
       <use xlink:href="#m66c4e3cf6d" x="458.267717" y="257.76" style="stroke: #000000; stroke-width: 1.2"/>
      </g>
     </g>
     <g id="text_19">
      <!-- 4 -->
      <g transform="translate(455.086467 272.358437)scale(0.1 -0.1)">
       <defs>
        <path id="DejaVuSans-34" d="M 2419 4116 
L 825 1625 
L 2419 1625 
L 2419 4116 
z
M 2253 4666 
L 3047 4666 
L 3047 1625 
L 3713 1625 
L 3713 1100 
L 3047 1100 
L 3047 0 
L 2419 0 
L 2419 1100 
L 313 1100 
L 313 1709 
L 2253 4666 
z
" transform="scale(0.015625)"/>
       </defs>
       <use xlink:href="#DejaVuSans-34"/>
      </g>
     </g>
    </g>
    <g id="xtick_9">
     <g id="line2d_19">
      <g>
       <use xlink:href="#m66c4e3cf6d" x="504.383419" y="257.76" style="stroke: #000000; stroke-width: 1.2"/>
      </g>
     </g>
     <g id="text_20">
      <!-- 6 -->
      <g transform="translate(501.202169 272.358437)scale(0.1 -0.1)">
       <defs>
        <path id="DejaVuSans-36" d="M 2113 2584 
Q 1688 2584 1439 2293 
Q 1191 2003 1191 1497 
Q 1191 994 1439 701 
Q 1688 409 2113 409 
Q 2538 409 2786 701 
Q 3034 994 3034 1497 
Q 3034 2003 2786 2293 
Q 2538 2584 2113 2584 
z
M 3366 4563 
L 3366 3988 
Q 3128 4100 2886 4159 
Q 2644 4219 2406 4219 
Q 1781 4219 1451 3797 
Q 1122 3375 1075 2522 
Q 1259 2794 1537 2939 
Q 1816 3084 2150 3084 
Q 2853 3084 3261 2657 
Q 3669 2231 3669 1497 
Q 3669 778 3244 343 
Q 2819 -91 2113 -91 
Q 1303 -91 875 529 
Q 447 1150 447 2328 
Q 447 3434 972 4092 
Q 1497 4750 2381 4750 
Q 2619 4750 2861 4703 
Q 3103 4656 3366 4563 
z
" transform="scale(0.015625)"/>
       </defs>
       <use xlink:href="#DejaVuSans-36"/>
      </g>
     </g>
    </g>
    <g id="xtick_10">
     <g id="line2d_20">
      <g>
       <use xlink:href="#m66c4e3cf6d" x="550.499122" y="257.76" style="stroke: #000000; stroke-width: 1.2"/>
      </g>
     </g>
     <g id="text_21">
      <!-- 8 -->
      <g transform="translate(547.317872 272.358437)scale(0.1 -0.1)">
       <defs>
        <path id="DejaVuSans-38" d="M 2034 2216 
Q 1584 2216 1326 1975 
Q 1069 1734 1069 1313 
Q 1069 891 1326 650 
Q 1584 409 2034 409 
Q 2484 409 2743 651 
Q 3003 894 3003 1313 
Q 3003 1734 2745 1975 
Q 2488 2216 2034 2216 
z
M 1403 2484 
Q 997 2584 770 2862 
Q 544 3141 544 3541 
Q 544 4100 942 4425 
Q 1341 4750 2034 4750 
Q 2731 4750 3128 4425 
Q 3525 4100 3525 3541 
Q 3525 3141 3298 2862 
Q 3072 2584 2669 2484 
Q 3125 2378 3379 2068 
Q 3634 1759 3634 1313 
Q 3634 634 3220 271 
Q 2806 -91 2034 -91 
Q 1263 -91 848 271 
Q 434 634 434 1313 
Q 434 1759 690 2068 
Q 947 2378 1403 2484 
z
M 1172 3481 
Q 1172 3119 1398 2916 
Q 1625 2713 2034 2713 
Q 2441 2713 2670 2916 
Q 2900 3119 2900 3481 
Q 2900 3844 2670 4047 
Q 2441 4250 2034 4250 
Q 1625 4250 1398 4047 
Q 1172 3844 1172 3481 
z
" transform="scale(0.015625)"/>
       </defs>
       <use xlink:href="#DejaVuSans-38"/>
      </g>
     </g>
    </g>
    <g id="xtick_11">
     <g id="line2d_21">
      <g>
       <use xlink:href="#m66c4e3cf6d" x="596.614824" y="257.76" style="stroke: #000000; stroke-width: 1.2"/>
      </g>
     </g>
     <g id="text_22">
      <!-- 10 -->
      <g transform="translate(590.252324 272.358437)scale(0.1 -0.1)">
       <use xlink:href="#DejaVuSans-31"/>
       <use xlink:href="#DejaVuSans-30" x="63.623047"/>
      </g>
     </g>
    </g>
    <g id="text_23">
     <!-- Noise Level -->
     <g transform="translate(452.666193 286.036562)scale(0.1 -0.1)">
      <use xlink:href="#DejaVuSans-4e"/>
      <use xlink:href="#DejaVuSans-6f" x="74.804688"/>
      <use xlink:href="#DejaVuSans-69" x="135.986328"/>
      <use xlink:href="#DejaVuSans-73" x="163.769531"/>
      <use xlink:href="#DejaVuSans-65" x="215.869141"/>
      <use xlink:href="#DejaVuSans-20" x="277.392578"/>
      <use xlink:href="#DejaVuSans-4c" x="309.179688"/>
      <use xlink:href="#DejaVuSans-65" x="363.142578"/>
      <use xlink:href="#DejaVuSans-76" x="424.666016"/>
      <use xlink:href="#DejaVuSans-65" x="483.845703"/>
      <use xlink:href="#DejaVuSans-6c" x="545.369141"/>
     </g>
    </g>
   </g>
   <g id="matplotlib.axis_4">
    <g id="ytick_10">
     <g id="line2d_22">
      <g>
       <use xlink:href="#m8dafa23582" x="354.507386" y="251.701939" style="stroke: #000000; stroke-width: 1.2"/>
      </g>
     </g>
     <g id="text_24">
      <!-- 8.5 -->
      <g transform="translate(331.604261 255.501158)scale(0.1 -0.1)">
       <use xlink:href="#DejaVuSans-38"/>
       <use xlink:href="#DejaVuSans-2e" x="63.623047"/>
       <use xlink:href="#DejaVuSans-35" x="95.410156"/>
      </g>
     </g>
    </g>
    <g id="ytick_11">
     <g id="line2d_23">
      <g>
       <use xlink:href="#m8dafa23582" x="354.507386" y="224.334658" style="stroke: #000000; stroke-width: 1.2"/>
      </g>
     </g>
     <g id="text_25">
      <!-- 9.0 -->
      <g transform="translate(331.604261 228.133877)scale(0.1 -0.1)">
       <defs>
        <path id="DejaVuSans-39" d="M 703 97 
L 703 672 
Q 941 559 1184 500 
Q 1428 441 1663 441 
Q 2288 441 2617 861 
Q 2947 1281 2994 2138 
Q 2813 1869 2534 1725 
Q 2256 1581 1919 1581 
Q 1219 1581 811 2004 
Q 403 2428 403 3163 
Q 403 3881 828 4315 
Q 1253 4750 1959 4750 
Q 2769 4750 3195 4129 
Q 3622 3509 3622 2328 
Q 3622 1225 3098 567 
Q 2575 -91 1691 -91 
Q 1453 -91 1209 -44 
Q 966 3 703 97 
z
M 1959 2075 
Q 2384 2075 2632 2365 
Q 2881 2656 2881 3163 
Q 2881 3666 2632 3958 
Q 2384 4250 1959 4250 
Q 1534 4250 1286 3958 
Q 1038 3666 1038 3163 
Q 1038 2656 1286 2365 
Q 1534 2075 1959 2075 
z
" transform="scale(0.015625)"/>
       </defs>
       <use xlink:href="#DejaVuSans-39"/>
       <use xlink:href="#DejaVuSans-2e" x="63.623047"/>
       <use xlink:href="#DejaVuSans-30" x="95.410156"/>
      </g>
     </g>
    </g>
    <g id="ytick_12">
     <g id="line2d_24">
      <g>
       <use xlink:href="#m8dafa23582" x="354.507386" y="196.967377" style="stroke: #000000; stroke-width: 1.2"/>
      </g>
     </g>
     <g id="text_26">
      <!-- 9.5 -->
      <g transform="translate(331.604261 200.766596)scale(0.1 -0.1)">
       <use xlink:href="#DejaVuSans-39"/>
       <use xlink:href="#DejaVuSans-2e" x="63.623047"/>
       <use xlink:href="#DejaVuSans-35" x="95.410156"/>
      </g>
     </g>
    </g>
    <g id="ytick_13">
     <g id="line2d_25">
      <g>
       <use xlink:href="#m8dafa23582" x="354.507386" y="169.600097" style="stroke: #000000; stroke-width: 1.2"/>
      </g>
     </g>
     <g id="text_27">
      <!-- 10.0 -->
      <g transform="translate(325.241761 173.399315)scale(0.1 -0.1)">
       <use xlink:href="#DejaVuSans-31"/>
       <use xlink:href="#DejaVuSans-30" x="63.623047"/>
       <use xlink:href="#DejaVuSans-2e" x="127.246094"/>
       <use xlink:href="#DejaVuSans-30" x="159.033203"/>
      </g>
     </g>
    </g>
    <g id="ytick_14">
     <g id="line2d_26">
      <g>
       <use xlink:href="#m8dafa23582" x="354.507386" y="142.232816" style="stroke: #000000; stroke-width: 1.2"/>
      </g>
     </g>
     <g id="text_28">
      <!-- 10.5 -->
      <g transform="translate(325.241761 146.032035)scale(0.1 -0.1)">
       <use xlink:href="#DejaVuSans-31"/>
       <use xlink:href="#DejaVuSans-30" x="63.623047"/>
       <use xlink:href="#DejaVuSans-2e" x="127.246094"/>
       <use xlink:href="#DejaVuSans-35" x="159.033203"/>
      </g>
     </g>
    </g>
    <g id="ytick_15">
     <g id="line2d_27">
      <g>
       <use xlink:href="#m8dafa23582" x="354.507386" y="114.865535" style="stroke: #000000; stroke-width: 1.2"/>
      </g>
     </g>
     <g id="text_29">
      <!-- 11.0 -->
      <g transform="translate(325.241761 118.664754)scale(0.1 -0.1)">
       <use xlink:href="#DejaVuSans-31"/>
       <use xlink:href="#DejaVuSans-31" x="63.623047"/>
       <use xlink:href="#DejaVuSans-2e" x="127.246094"/>
       <use xlink:href="#DejaVuSans-30" x="159.033203"/>
      </g>
     </g>
    </g>
    <g id="ytick_16">
     <g id="line2d_28">
      <g>
       <use xlink:href="#m8dafa23582" x="354.507386" y="87.498255" style="stroke: #000000; stroke-width: 1.2"/>
      </g>
     </g>
     <g id="text_30">
      <!-- 11.5 -->
      <g transform="translate(325.241761 91.297473)scale(0.1 -0.1)">
       <use xlink:href="#DejaVuSans-31"/>
       <use xlink:href="#DejaVuSans-31" x="63.623047"/>
       <use xlink:href="#DejaVuSans-2e" x="127.246094"/>
       <use xlink:href="#DejaVuSans-35" x="159.033203"/>
      </g>
     </g>
    </g>
    <g id="ytick_17">
     <g id="line2d_29">
      <g>
       <use xlink:href="#m8dafa23582" x="354.507386" y="60.130974" style="stroke: #000000; stroke-width: 1.2"/>
      </g>
     </g>
     <g id="text_31">
      <!-- 12.0 -->
      <g transform="translate(325.241761 63.930193)scale(0.1 -0.1)">
       <use xlink:href="#DejaVuSans-31"/>
       <use xlink:href="#DejaVuSans-32" x="63.623047"/>
       <use xlink:href="#DejaVuSans-2e" x="127.246094"/>
       <use xlink:href="#DejaVuSans-30" x="159.033203"/>
      </g>
     </g>
    </g>
    <g id="text_32">
     <!-- MNLPD -->
     <g transform="translate(319.162074 164.585469)rotate(-90)scale(0.1 -0.1)">
      <defs>
       <path id="DejaVuSans-44" d="M 1259 4147 
L 1259 519 
L 2022 519 
Q 2988 519 3436 956 
Q 3884 1394 3884 2338 
Q 3884 3275 3436 3711 
Q 2988 4147 2022 4147 
L 1259 4147 
z
M 628 4666 
L 1925 4666 
Q 3281 4666 3915 4102 
Q 4550 3538 4550 2338 
Q 4550 1131 3912 565 
Q 3275 0 1925 0 
L 628 0 
L 628 4666 
z
" transform="scale(0.015625)"/>
      </defs>
      <use xlink:href="#DejaVuSans-4d"/>
      <use xlink:href="#DejaVuSans-4e" x="86.279297"/>
      <use xlink:href="#DejaVuSans-4c" x="161.083984"/>
      <use xlink:href="#DejaVuSans-50" x="216.796875"/>
      <use xlink:href="#DejaVuSans-44" x="277.099609"/>
     </g>
    </g>
   </g>
   <g id="LineCollection_3">
    <path d="M 366.036312 247.68 
L 366.036312 244.888473 
" clip-path="url(#p1df934fa2a)" style="fill: none; stroke: #006ba4; stroke-width: 1.5"/>
    <path d="M 377.565238 246.811682 
L 377.565238 242.17668 
" clip-path="url(#p1df934fa2a)" style="fill: none; stroke: #006ba4; stroke-width: 1.5"/>
    <path d="M 389.094163 232.182654 
L 389.094163 227.765284 
" clip-path="url(#p1df934fa2a)" style="fill: none; stroke: #006ba4; stroke-width: 1.5"/>
    <path d="M 412.152014 205.261301 
L 412.152014 200.564239 
" clip-path="url(#p1df934fa2a)" style="fill: none; stroke: #006ba4; stroke-width: 1.5"/>
    <path d="M 435.209866 176.847917 
L 435.209866 171.991484 
" clip-path="url(#p1df934fa2a)" style="fill: none; stroke: #006ba4; stroke-width: 1.5"/>
    <path d="M 481.325568 137.418414 
L 481.325568 134.185979 
" clip-path="url(#p1df934fa2a)" style="fill: none; stroke: #006ba4; stroke-width: 1.5"/>
    <path d="M 596.614824 63.742092 
L 596.614824 59.50641 
" clip-path="url(#p1df934fa2a)" style="fill: none; stroke: #006ba4; stroke-width: 1.5"/>
   </g>
   <g id="LineCollection_4">
    <path d="M 366.036312 211.835403 
L 366.036312 207.101366 
" clip-path="url(#p1df934fa2a)" style="fill: none; stroke: #c85200; stroke-width: 1.5"/>
    <path d="M 377.565238 211.03994 
L 377.565238 204.002841 
" clip-path="url(#p1df934fa2a)" style="fill: none; stroke: #c85200; stroke-width: 1.5"/>
    <path d="M 389.094163 203.28199 
L 389.094163 198.032744 
" clip-path="url(#p1df934fa2a)" style="fill: none; stroke: #c85200; stroke-width: 1.5"/>
    <path d="M 412.152014 186.135716 
L 412.152014 181.186624 
" clip-path="url(#p1df934fa2a)" style="fill: none; stroke: #c85200; stroke-width: 1.5"/>
    <path d="M 435.209866 160.486199 
L 435.209866 154.12665 
" clip-path="url(#p1df934fa2a)" style="fill: none; stroke: #c85200; stroke-width: 1.5"/>
    <path d="M 481.325568 125.856362 
L 481.325568 123.009146 
" clip-path="url(#p1df934fa2a)" style="fill: none; stroke: #c85200; stroke-width: 1.5"/>
    <path d="M 596.614824 53.496384 
L 596.614824 46.08 
" clip-path="url(#p1df934fa2a)" style="fill: none; stroke: #c85200; stroke-width: 1.5"/>
   </g>
   <g id="LineCollection_5">
    <path d="M 366.036312 230.027405 
L 366.036312 226.658523 
" clip-path="url(#p1df934fa2a)" style="fill: none; stroke: #ff800e; stroke-width: 1.5"/>
    <path d="M 377.565238 226.987456 
L 377.565238 221.642224 
" clip-path="url(#p1df934fa2a)" style="fill: none; stroke: #ff800e; stroke-width: 1.5"/>
    <path d="M 389.094163 216.295148 
L 389.094163 211.776046 
" clip-path="url(#p1df934fa2a)" style="fill: none; stroke: #ff800e; stroke-width: 1.5"/>
    <path d="M 412.152014 195.617548 
L 412.152014 190.339524 
" clip-path="url(#p1df934fa2a)" style="fill: none; stroke: #ff800e; stroke-width: 1.5"/>
    <path d="M 435.209866 169.660495 
L 435.209866 164.859122 
" clip-path="url(#p1df934fa2a)" style="fill: none; stroke: #ff800e; stroke-width: 1.5"/>
    <path d="M 481.325568 134.315165 
L 481.325568 131.342806 
" clip-path="url(#p1df934fa2a)" style="fill: none; stroke: #ff800e; stroke-width: 1.5"/>
    <path d="M 596.614824 63.453413 
L 596.614824 59.363421 
" clip-path="url(#p1df934fa2a)" style="fill: none; stroke: #ff800e; stroke-width: 1.5"/>
   </g>
   <g id="LineCollection_6">
    <path d="M 366.036312 212.244223 
L 366.036312 208.121616 
" clip-path="url(#p1df934fa2a)" style="fill: none; stroke: #898989; stroke-width: 1.5"/>
    <path d="M 377.565238 213.416411 
L 377.565238 207.900648 
" clip-path="url(#p1df934fa2a)" style="fill: none; stroke: #898989; stroke-width: 1.5"/>
    <path d="M 389.094163 208.854173 
L 389.094163 203.101958 
" clip-path="url(#p1df934fa2a)" style="fill: none; stroke: #898989; stroke-width: 1.5"/>
    <path d="M 412.152014 190.50182 
L 412.152014 186.25041 
" clip-path="url(#p1df934fa2a)" style="fill: none; stroke: #898989; stroke-width: 1.5"/>
    <path d="M 435.209866 167.67233 
L 435.209866 162.561355 
" clip-path="url(#p1df934fa2a)" style="fill: none; stroke: #898989; stroke-width: 1.5"/>
    <path d="M 481.325568 134.328657 
L 481.325568 130.74594 
" clip-path="url(#p1df934fa2a)" style="fill: none; stroke: #898989; stroke-width: 1.5"/>
    <path d="M 596.614824 63.553925 
L 596.614824 59.477942 
" clip-path="url(#p1df934fa2a)" style="fill: none; stroke: #898989; stroke-width: 1.5"/>
   </g>
   <g id="line2d_30">
    <path d="M 366.036312 246.284237 
L 377.565238 244.494181 
L 389.094163 229.973969 
L 412.152014 202.91277 
L 435.209866 174.4197 
L 481.325568 135.802196 
L 596.614824 61.624251 
" clip-path="url(#p1df934fa2a)" style="fill: none; stroke: #006ba4; stroke-width: 1.5"/>
   </g>
   <g id="line2d_31">
    <path d="M 366.036312 209.468385 
L 377.565238 207.521391 
L 389.094163 200.657367 
L 412.152014 183.66117 
L 435.209866 157.306424 
L 481.325568 124.432754 
L 596.614824 49.788192 
" clip-path="url(#p1df934fa2a)" style="fill: none; stroke: #c85200; stroke-width: 1.5"/>
   </g>
   <g id="line2d_32">
    <path d="M 366.036312 228.342964 
L 377.565238 224.31484 
L 389.094163 214.035597 
L 412.152014 192.978536 
L 435.209866 167.259809 
L 481.325568 132.828986 
L 596.614824 61.408417 
" clip-path="url(#p1df934fa2a)" style="fill: none; stroke: #ff800e; stroke-width: 1.5"/>
   </g>
   <g id="line2d_33">
    <path d="M 366.036312 210.18292 
L 377.565238 210.658529 
L 389.094163 205.978066 
L 412.152014 188.376115 
L 435.209866 165.116843 
L 481.325568 132.537299 
L 596.614824 61.515934 
" clip-path="url(#p1df934fa2a)" style="fill: none; stroke: #898989; stroke-width: 1.5"/>
   </g>
   <g id="patch_8">
    <path d="M 354.507386 257.76 
L 354.507386 36 
" style="fill: none; stroke: #000000; stroke-width: 1.5; stroke-linejoin: miter; stroke-linecap: square"/>
   </g>
   <g id="patch_9">
    <path d="M 608.14375 257.76 
L 608.14375 36 
" style="fill: none; stroke: #000000; stroke-width: 1.5; stroke-linejoin: miter; stroke-linecap: square"/>
   </g>
   <g id="patch_10">
    <path d="M 354.507386 257.76 
L 608.14375 257.76 
" style="fill: none; stroke: #000000; stroke-width: 1.5; stroke-linejoin: miter; stroke-linecap: square"/>
   </g>
   <g id="patch_11">
    <path d="M 354.507386 36 
L 608.14375 36 
" style="fill: none; stroke: #000000; stroke-width: 1.5; stroke-linejoin: miter; stroke-linecap: square"/>
   </g>
   <g id="legend_1">
    <g id="patch_12">
     <path d="M 361.507386 102.7125 
L 460.013636 102.7125 
Q 462.013636 102.7125 462.013636 100.7125 
L 462.013636 43 
Q 462.013636 41 460.013636 41 
L 361.507386 41 
Q 359.507386 41 359.507386 43 
L 359.507386 100.7125 
Q 359.507386 102.7125 361.507386 102.7125 
z
" style="fill: #ffffff; opacity: 0.8; stroke: #cccccc; stroke-width: 0.5; stroke-linejoin: miter"/>
    </g>
    <g id="LineCollection_7">
     <path d="M 373.507386 54.098437 
L 373.507386 44.098437 
" style="fill: none; stroke: #006ba4; stroke-width: 1.5"/>
    </g>
    <g id="line2d_34">
     <path d="M 363.507386 49.098437 
L 383.507386 49.098437 
" style="fill: none; stroke: #006ba4; stroke-width: 1.5"/>
    </g>
    <g id="line2d_35"/>
    <g id="text_33">
     <!-- Bootstrap -->
     <g transform="translate(391.507386 52.598437)scale(0.1 -0.1)">
      <defs>
       <path id="DejaVuSans-42" d="M 1259 2228 
L 1259 519 
L 2272 519 
Q 2781 519 3026 730 
Q 3272 941 3272 1375 
Q 3272 1813 3026 2020 
Q 2781 2228 2272 2228 
L 1259 2228 
z
M 1259 4147 
L 1259 2741 
L 2194 2741 
Q 2656 2741 2882 2914 
Q 3109 3088 3109 3444 
Q 3109 3797 2882 3972 
Q 2656 4147 2194 4147 
L 1259 4147 
z
M 628 4666 
L 2241 4666 
Q 2963 4666 3353 4366 
Q 3744 4066 3744 3513 
Q 3744 3084 3544 2831 
Q 3344 2578 2956 2516 
Q 3422 2416 3680 2098 
Q 3938 1781 3938 1306 
Q 3938 681 3513 340 
Q 3088 0 2303 0 
L 628 0 
L 628 4666 
z
" transform="scale(0.015625)"/>
       <path id="DejaVuSans-70" d="M 1159 525 
L 1159 -1331 
L 581 -1331 
L 581 3500 
L 1159 3500 
L 1159 2969 
Q 1341 3281 1617 3432 
Q 1894 3584 2278 3584 
Q 2916 3584 3314 3078 
Q 3713 2572 3713 1747 
Q 3713 922 3314 415 
Q 2916 -91 2278 -91 
Q 1894 -91 1617 61 
Q 1341 213 1159 525 
z
M 3116 1747 
Q 3116 2381 2855 2742 
Q 2594 3103 2138 3103 
Q 1681 3103 1420 2742 
Q 1159 2381 1159 1747 
Q 1159 1113 1420 752 
Q 1681 391 2138 391 
Q 2594 391 2855 752 
Q 3116 1113 3116 1747 
z
" transform="scale(0.015625)"/>
      </defs>
      <use xlink:href="#DejaVuSans-42"/>
      <use xlink:href="#DejaVuSans-6f" x="68.603516"/>
      <use xlink:href="#DejaVuSans-6f" x="129.785156"/>
      <use xlink:href="#DejaVuSans-74" x="190.966797"/>
      <use xlink:href="#DejaVuSans-73" x="230.175781"/>
      <use xlink:href="#DejaVuSans-74" x="282.275391"/>
      <use xlink:href="#DejaVuSans-72" x="321.484375"/>
      <use xlink:href="#DejaVuSans-61" x="362.597656"/>
      <use xlink:href="#DejaVuSans-70" x="423.876953"/>
     </g>
    </g>
    <g id="LineCollection_8">
     <path d="M 373.507386 68.776562 
L 373.507386 58.776562 
" style="fill: none; stroke: #c85200; stroke-width: 1.5"/>
    </g>
    <g id="line2d_36">
     <path d="M 363.507386 63.776562 
L 383.507386 63.776562 
" style="fill: none; stroke: #c85200; stroke-width: 1.5"/>
    </g>
    <g id="line2d_37"/>
    <g id="text_34">
     <!-- Jackknife -->
     <g transform="translate(391.507386 67.276562)scale(0.1 -0.1)">
      <defs>
       <path id="DejaVuSans-4a" d="M 628 4666 
L 1259 4666 
L 1259 325 
Q 1259 -519 939 -900 
Q 619 -1281 -91 -1281 
L -331 -1281 
L -331 -750 
L -134 -750 
Q 284 -750 456 -515 
Q 628 -281 628 325 
L 628 4666 
z
" transform="scale(0.015625)"/>
       <path id="DejaVuSans-6b" d="M 581 4863 
L 1159 4863 
L 1159 1991 
L 2875 3500 
L 3609 3500 
L 1753 1863 
L 3688 0 
L 2938 0 
L 1159 1709 
L 1159 0 
L 581 0 
L 581 4863 
z
" transform="scale(0.015625)"/>
       <path id="DejaVuSans-66" d="M 2375 4863 
L 2375 4384 
L 1825 4384 
Q 1516 4384 1395 4259 
Q 1275 4134 1275 3809 
L 1275 3500 
L 2222 3500 
L 2222 3053 
L 1275 3053 
L 1275 0 
L 697 0 
L 697 3053 
L 147 3053 
L 147 3500 
L 697 3500 
L 697 3744 
Q 697 4328 969 4595 
Q 1241 4863 1831 4863 
L 2375 4863 
z
" transform="scale(0.015625)"/>
      </defs>
      <use xlink:href="#DejaVuSans-4a"/>
      <use xlink:href="#DejaVuSans-61" x="29.492188"/>
      <use xlink:href="#DejaVuSans-63" x="90.771484"/>
      <use xlink:href="#DejaVuSans-6b" x="145.751953"/>
      <use xlink:href="#DejaVuSans-6b" x="203.662109"/>
      <use xlink:href="#DejaVuSans-6e" x="261.572266"/>
      <use xlink:href="#DejaVuSans-69" x="324.951172"/>
      <use xlink:href="#DejaVuSans-66" x="352.734375"/>
      <use xlink:href="#DejaVuSans-65" x="387.939453"/>
     </g>
    </g>
    <g id="LineCollection_9">
     <path d="M 373.507386 83.454687 
L 373.507386 73.454687 
" style="fill: none; stroke: #ff800e; stroke-width: 1.5"/>
    </g>
    <g id="line2d_38">
     <path d="M 363.507386 78.454687 
L 383.507386 78.454687 
" style="fill: none; stroke: #ff800e; stroke-width: 1.5"/>
    </g>
    <g id="line2d_39"/>
    <g id="text_35">
     <!-- Training Data -->
     <g transform="translate(391.507386 81.954687)scale(0.1 -0.1)">
      <defs>
       <path id="DejaVuSans-54" d="M -19 4666 
L 3928 4666 
L 3928 4134 
L 2272 4134 
L 2272 0 
L 1638 0 
L 1638 4134 
L -19 4134 
L -19 4666 
z
" transform="scale(0.015625)"/>
      </defs>
      <use xlink:href="#DejaVuSans-54"/>
      <use xlink:href="#DejaVuSans-72" x="46.333984"/>
      <use xlink:href="#DejaVuSans-61" x="87.447266"/>
      <use xlink:href="#DejaVuSans-69" x="148.726562"/>
      <use xlink:href="#DejaVuSans-6e" x="176.509766"/>
      <use xlink:href="#DejaVuSans-69" x="239.888672"/>
      <use xlink:href="#DejaVuSans-6e" x="267.671875"/>
      <use xlink:href="#DejaVuSans-67" x="331.050781"/>
      <use xlink:href="#DejaVuSans-20" x="394.527344"/>
      <use xlink:href="#DejaVuSans-44" x="426.314453"/>
      <use xlink:href="#DejaVuSans-61" x="503.316406"/>
      <use xlink:href="#DejaVuSans-74" x="564.595703"/>
      <use xlink:href="#DejaVuSans-61" x="603.804688"/>
     </g>
    </g>
    <g id="LineCollection_10">
     <path d="M 373.507386 98.132812 
L 373.507386 88.132812 
" style="fill: none; stroke: #898989; stroke-width: 1.5"/>
    </g>
    <g id="line2d_40">
     <path d="M 363.507386 93.132812 
L 383.507386 93.132812 
" style="fill: none; stroke: #898989; stroke-width: 1.5"/>
    </g>
    <g id="line2d_41"/>
    <g id="text_36">
     <!-- Trivial -->
     <g transform="translate(391.507386 96.632812)scale(0.1 -0.1)">
      <use xlink:href="#DejaVuSans-54"/>
      <use xlink:href="#DejaVuSans-72" x="46.333984"/>
      <use xlink:href="#DejaVuSans-69" x="87.447266"/>
      <use xlink:href="#DejaVuSans-76" x="115.230469"/>
      <use xlink:href="#DejaVuSans-69" x="174.410156"/>
      <use xlink:href="#DejaVuSans-61" x="202.193359"/>
      <use xlink:href="#DejaVuSans-6c" x="263.472656"/>
     </g>
    </g>
   </g>
  </g>
  <g id="text_37">
   <!-- Bootstrap Identifies Correct High-Noise Behavior -->
   <g transform="translate(174.445 16.318125)scale(0.12 -0.12)">
    <defs>
     <path id="DejaVuSans-43" d="M 4122 4306 
L 4122 3641 
Q 3803 3938 3442 4084 
Q 3081 4231 2675 4231 
Q 1875 4231 1450 3742 
Q 1025 3253 1025 2328 
Q 1025 1406 1450 917 
Q 1875 428 2675 428 
Q 3081 428 3442 575 
Q 3803 722 4122 1019 
L 4122 359 
Q 3791 134 3420 21 
Q 3050 -91 2638 -91 
Q 1578 -91 968 557 
Q 359 1206 359 2328 
Q 359 3453 968 4101 
Q 1578 4750 2638 4750 
Q 3056 4750 3426 4639 
Q 3797 4528 4122 4306 
z
" transform="scale(0.015625)"/>
     <path id="DejaVuSans-48" d="M 628 4666 
L 1259 4666 
L 1259 2753 
L 3553 2753 
L 3553 4666 
L 4184 4666 
L 4184 0 
L 3553 0 
L 3553 2222 
L 1259 2222 
L 1259 0 
L 628 0 
L 628 4666 
z
" transform="scale(0.015625)"/>
     <path id="DejaVuSans-68" d="M 3513 2113 
L 3513 0 
L 2938 0 
L 2938 2094 
Q 2938 2591 2744 2837 
Q 2550 3084 2163 3084 
Q 1697 3084 1428 2787 
Q 1159 2491 1159 1978 
L 1159 0 
L 581 0 
L 581 4863 
L 1159 4863 
L 1159 2956 
Q 1366 3272 1645 3428 
Q 1925 3584 2291 3584 
Q 2894 3584 3203 3211 
Q 3513 2838 3513 2113 
z
" transform="scale(0.015625)"/>
    </defs>
    <use xlink:href="#DejaVuSans-42"/>
    <use xlink:href="#DejaVuSans-6f" x="68.603516"/>
    <use xlink:href="#DejaVuSans-6f" x="129.785156"/>
    <use xlink:href="#DejaVuSans-74" x="190.966797"/>
    <use xlink:href="#DejaVuSans-73" x="230.175781"/>
    <use xlink:href="#DejaVuSans-74" x="282.275391"/>
    <use xlink:href="#DejaVuSans-72" x="321.484375"/>
    <use xlink:href="#DejaVuSans-61" x="362.597656"/>
    <use xlink:href="#DejaVuSans-70" x="423.876953"/>
    <use xlink:href="#DejaVuSans-20" x="487.353516"/>
    <use xlink:href="#DejaVuSans-49" x="519.140625"/>
    <use xlink:href="#DejaVuSans-64" x="548.632812"/>
    <use xlink:href="#DejaVuSans-65" x="612.109375"/>
    <use xlink:href="#DejaVuSans-6e" x="673.632812"/>
    <use xlink:href="#DejaVuSans-74" x="737.011719"/>
    <use xlink:href="#DejaVuSans-69" x="776.220703"/>
    <use xlink:href="#DejaVuSans-66" x="804.003906"/>
    <use xlink:href="#DejaVuSans-69" x="839.208984"/>
    <use xlink:href="#DejaVuSans-65" x="866.992188"/>
    <use xlink:href="#DejaVuSans-73" x="928.515625"/>
    <use xlink:href="#DejaVuSans-20" x="980.615234"/>
    <use xlink:href="#DejaVuSans-43" x="1012.402344"/>
    <use xlink:href="#DejaVuSans-6f" x="1082.226562"/>
    <use xlink:href="#DejaVuSans-72" x="1143.408203"/>
    <use xlink:href="#DejaVuSans-72" x="1182.771484"/>
    <use xlink:href="#DejaVuSans-65" x="1221.634766"/>
    <use xlink:href="#DejaVuSans-63" x="1283.158203"/>
    <use xlink:href="#DejaVuSans-74" x="1338.138672"/>
    <use xlink:href="#DejaVuSans-20" x="1377.347656"/>
    <use xlink:href="#DejaVuSans-48" x="1409.134766"/>
    <use xlink:href="#DejaVuSans-69" x="1484.330078"/>
    <use xlink:href="#DejaVuSans-67" x="1512.113281"/>
    <use xlink:href="#DejaVuSans-68" x="1575.589844"/>
    <use xlink:href="#DejaVuSans-2d" x="1638.96875"/>
    <use xlink:href="#DejaVuSans-4e" x="1675.052734"/>
    <use xlink:href="#DejaVuSans-6f" x="1749.857422"/>
    <use xlink:href="#DejaVuSans-69" x="1811.039062"/>
    <use xlink:href="#DejaVuSans-73" x="1838.822266"/>
    <use xlink:href="#DejaVuSans-65" x="1890.921875"/>
    <use xlink:href="#DejaVuSans-20" x="1952.445312"/>
    <use xlink:href="#DejaVuSans-42" x="1984.232422"/>
    <use xlink:href="#DejaVuSans-65" x="2052.835938"/>
    <use xlink:href="#DejaVuSans-68" x="2114.359375"/>
    <use xlink:href="#DejaVuSans-61" x="2177.738281"/>
    <use xlink:href="#DejaVuSans-76" x="2239.017578"/>
    <use xlink:href="#DejaVuSans-69" x="2298.197266"/>
    <use xlink:href="#DejaVuSans-6f" x="2325.980469"/>
    <use xlink:href="#DejaVuSans-72" x="2387.162109"/>
   </g>
  </g>
 </g>
 <defs>
  <clipPath id="pcc0f6ef577">
   <rect x="50.14375" y="36" width="253.636364" height="221.76"/>
  </clipPath>
  <clipPath id="p1df934fa2a">
   <rect x="354.507386" y="36" width="253.636364" height="221.76"/>
  </clipPath>
 </defs>
</svg>
