<?xml version="1.0" encoding="utf-8" standalone="no"?>
<!DOCTYPE svg PUBLIC "-//W3C//DTD SVG 1.1//EN"
  "http://www.w3.org/Graphics/SVG/1.1/DTD/svg11.dtd">
<svg xmlns:xlink="http://www.w3.org/1999/xlink" width="605.803125pt" height="256.582125pt" viewBox="0 0 605.803125 256.582125" xmlns="http://www.w3.org/2000/svg" version="1.1">
 <metadata>
  <rdf:RDF xmlns:dc="http://purl.org/dc/elements/1.1/" xmlns:cc="http://creativecommons.org/ns#" xmlns:rdf="http://www.w3.org/1999/02/22-rdf-syntax-ns#">
   <cc:Work>
    <dc:type rdf:resource="http://purl.org/dc/dcmitype/StillImage"/>
    <dc:date>2022-04-26T19:16:46.121913</dc:date>
    <dc:format>image/svg+xml</dc:format>
    <dc:creator>
     <cc:Agent>
      <dc:title>Matplotlib v3.5.1, https://matplotlib.org/</dc:title>
     </cc:Agent>
    </dc:creator>
   </cc:Work>
  </rdf:RDF>
 </metadata>
 <defs>
  <style type="text/css">*{stroke-linejoin: round; stroke-linecap: butt}</style>
 </defs>
 <g id="figure_1">
  <g id="patch_1">
   <path d="M 0 256.582125 
L 605.803125 256.582125 
L 605.803125 0 
L 0 0 
z
" style="fill: #ffffff"/>
  </g>
  <g id="axes_1">
   <g id="patch_2">
    <path d="M 40.603125 232.704 
L 294.239489 232.704 
L 294.239489 33.12 
L 40.603125 33.12 
z
" style="fill: #ffffff"/>
   </g>
   <g id="PolyCollection_1">
    <path d="M 75.612196 223.632 
L 61.591693 223.632 
L 61.303102 221.799273 
L 61.037304 219.966545 
L 60.796505 218.133818 
L 60.582508 216.301091 
L 60.3967 214.468364 
L 60.240037 212.635636 
L 60.11305 210.802909 
L 60.015859 208.970182 
L 59.948193 207.137455 
L 59.909418 205.304727 
L 59.89857 203.472 
L 59.914384 201.639273 
L 59.955331 199.806545 
L 60.019647 197.973818 
L 60.105357 196.141091 
L 60.210305 194.308364 
L 60.332164 192.475636 
L 60.468456 190.642909 
L 60.616561 188.810182 
L 60.773723 186.977455 
L 60.93706 185.144727 
L 61.103566 183.312 
L 61.270122 181.479273 
L 61.433506 179.646545 
L 61.590408 177.813818 
L 61.737448 175.981091 
L 61.871204 174.148364 
L 61.98824 172.315636 
L 62.08515 170.482909 
L 62.158595 168.650182 
L 62.205358 166.817455 
L 62.222399 164.984727 
L 62.206907 163.152 
L 62.15637 161.319273 
L 62.068627 159.486545 
L 61.94194 157.653818 
L 61.775044 155.821091 
L 61.567204 153.988364 
L 61.318266 152.155636 
L 61.028694 150.322909 
L 60.699603 148.490182 
L 60.332774 146.657455 
L 59.930664 144.824727 
L 59.496395 142.992 
L 59.033731 141.159273 
L 58.547044 139.326545 
L 58.041253 137.493818 
L 57.521765 135.661091 
L 56.994391 133.828364 
L 56.465255 131.995636 
L 55.940695 130.162909 
L 55.427154 128.330182 
L 54.931069 126.497455 
L 54.458761 124.664727 
L 54.016321 122.832 
L 53.609506 120.999273 
L 53.243642 119.166545 
L 52.923529 117.333818 
L 52.653368 115.501091 
L 52.436696 113.668364 
L 52.276334 111.835636 
L 52.174353 110.002909 
L 52.132051 108.170182 
L 52.149952 106.337455 
L 52.227816 104.504727 
L 52.364657 102.672 
L 52.558786 100.839273 
L 52.807856 99.006545 
L 53.108918 97.173818 
L 53.458489 95.341091 
L 53.852626 93.508364 
L 54.287001 91.675636 
L 54.756981 89.842909 
L 55.257714 88.010182 
L 55.784212 86.177455 
L 56.331424 84.344727 
L 56.894324 82.512 
L 57.467978 80.679273 
L 58.047613 78.846545 
L 58.62868 77.013818 
L 59.206908 75.181091 
L 59.778348 73.348364 
L 60.339412 71.515636 
L 60.886902 69.682909 
L 61.418029 67.850182 
L 61.930424 66.017455 
L 62.422141 64.184727 
L 62.89165 62.352 
L 63.337823 60.519273 
L 63.759915 58.686545 
L 64.157537 56.853818 
L 64.530627 55.021091 
L 64.879411 53.188364 
L 65.204368 51.355636 
L 65.506189 49.522909 
L 65.785742 47.690182 
L 66.044027 45.857455 
L 66.28214 44.024727 
L 66.501243 42.192 
L 70.702646 42.192 
L 70.702646 42.192 
L 70.921749 44.024727 
L 71.159862 45.857455 
L 71.418146 47.690182 
L 71.697699 49.522909 
L 71.999521 51.355636 
L 72.324478 53.188364 
L 72.673261 55.021091 
L 73.046351 56.853818 
L 73.443974 58.686545 
L 73.866066 60.519273 
L 74.312239 62.352 
L 74.781747 64.184727 
L 75.273465 66.017455 
L 75.78586 67.850182 
L 76.316987 69.682909 
L 76.864477 71.515636 
L 77.425541 73.348364 
L 77.996981 75.181091 
L 78.575208 77.013818 
L 79.156276 78.846545 
L 79.735911 80.679273 
L 80.309565 82.512 
L 80.872465 84.344727 
L 81.419677 86.177455 
L 81.946174 88.010182 
L 82.446908 89.842909 
L 82.916888 91.675636 
L 83.351262 93.508364 
L 83.745399 95.341091 
L 84.094971 97.173818 
L 84.396033 99.006545 
L 84.645102 100.839273 
L 84.839232 102.672 
L 84.976073 104.504727 
L 85.053937 106.337455 
L 85.071838 108.170182 
L 85.029536 110.002909 
L 84.927554 111.835636 
L 84.767192 113.668364 
L 84.550521 115.501091 
L 84.28036 117.333818 
L 83.960247 119.166545 
L 83.594382 120.999273 
L 83.187568 122.832 
L 82.745128 124.664727 
L 82.27282 126.497455 
L 81.776735 128.330182 
L 81.263194 130.162909 
L 80.738634 131.995636 
L 80.209498 133.828364 
L 79.682124 135.661091 
L 79.162636 137.493818 
L 78.656845 139.326545 
L 78.170157 141.159273 
L 77.707494 142.992 
L 77.273225 144.824727 
L 76.871115 146.657455 
L 76.504286 148.490182 
L 76.175195 150.322909 
L 75.885623 152.155636 
L 75.636685 153.988364 
L 75.428845 155.821091 
L 75.261948 157.653818 
L 75.135261 159.486545 
L 75.047519 161.319273 
L 74.996981 163.152 
L 74.98149 164.984727 
L 74.99853 166.817455 
L 75.045294 168.650182 
L 75.118739 170.482909 
L 75.215648 172.315636 
L 75.332685 174.148364 
L 75.46644 175.981091 
L 75.613481 177.813818 
L 75.770383 179.646545 
L 75.933767 181.479273 
L 76.100323 183.312 
L 76.266829 185.144727 
L 76.430165 186.977455 
L 76.587328 188.810182 
L 76.735433 190.642909 
L 76.871725 192.475636 
L 76.993584 194.308364 
L 77.098531 196.141091 
L 77.184242 197.973818 
L 77.248558 199.806545 
L 77.289505 201.639273 
L 77.305319 203.472 
L 77.29447 205.304727 
L 77.255696 207.137455 
L 77.18803 208.970182 
L 77.090839 210.802909 
L 76.963852 212.635636 
L 76.807189 214.468364 
L 76.62138 216.301091 
L 76.407384 218.133818 
L 76.166584 219.966545 
L 75.900787 221.799273 
L 75.612196 223.632 
z
" clip-path="url(#pf0d64951c9)" style="fill: #006ba4; fill-opacity: 0.3"/>
   </g>
   <g id="PolyCollection_2">
    <path d="M 142.618867 223.632 
L 126.344172 223.632 
L 126.182434 221.799273 
L 126.052949 219.966545 
L 125.956862 218.133818 
L 125.894829 216.301091 
L 125.867001 214.468364 
L 125.873016 212.635636 
L 125.912004 210.802909 
L 125.982607 208.970182 
L 126.083004 207.137455 
L 126.210953 205.304727 
L 126.363835 203.472 
L 126.53871 201.639273 
L 126.732382 199.806545 
L 126.941458 197.973818 
L 127.162422 196.141091 
L 127.391698 194.308364 
L 127.625718 192.475636 
L 127.860984 190.642909 
L 128.094124 188.810182 
L 128.321946 186.977455 
L 128.541475 185.144727 
L 128.749992 183.312 
L 128.945057 181.479273 
L 129.124523 179.646545 
L 129.286543 177.813818 
L 129.429568 175.981091 
L 129.552335 174.148364 
L 129.653849 172.315636 
L 129.73336 170.482909 
L 129.790335 168.650182 
L 129.824422 166.817455 
L 129.835425 164.984727 
L 129.823263 163.152 
L 129.787944 161.319273 
L 129.729536 159.486545 
L 129.648138 157.653818 
L 129.543866 155.821091 
L 129.416839 153.988364 
L 129.267167 152.155636 
L 129.094958 150.322909 
L 128.900316 148.490182 
L 128.68336 146.657455 
L 128.444241 144.824727 
L 128.18316 142.992 
L 127.900402 141.159273 
L 127.596357 139.326545 
L 127.271558 137.493818 
L 126.926705 135.661091 
L 126.562698 133.828364 
L 126.180658 131.995636 
L 125.78195 130.162909 
L 125.368199 128.330182 
L 124.941298 126.497455 
L 124.503406 124.664727 
L 124.056948 122.832 
L 123.604596 120.999273 
L 123.149246 119.166545 
L 122.693992 117.333818 
L 122.242089 115.501091 
L 121.796906 113.668364 
L 121.361886 111.835636 
L 120.940489 110.002909 
L 120.536144 108.170182 
L 120.152196 106.337455 
L 119.791851 104.504727 
L 119.458131 102.672 
L 119.153826 100.839273 
L 118.881458 99.006545 
L 118.643241 97.173818 
L 118.44106 95.341091 
L 118.276447 93.508364 
L 118.150575 91.675636 
L 118.064246 89.842909 
L 118.017901 88.010182 
L 118.011626 86.177455 
L 118.045168 84.344727 
L 118.11796 82.512 
L 118.229141 80.679273 
L 118.377586 78.846545 
L 118.561938 77.013818 
L 118.780636 75.181091 
L 119.031948 73.348364 
L 119.313999 71.515636 
L 119.624802 69.682909 
L 119.962279 67.850182 
L 120.324286 66.017455 
L 120.708635 64.184727 
L 121.11311 62.352 
L 121.535477 60.519273 
L 121.973501 58.686545 
L 122.424954 56.853818 
L 122.88762 55.021091 
L 123.359307 53.188364 
L 123.837845 51.355636 
L 124.3211 49.522909 
L 124.806972 47.690182 
L 125.293407 45.857455 
L 125.778403 44.024727 
L 126.260015 42.192 
L 142.703024 42.192 
L 142.703024 42.192 
L 143.184636 44.024727 
L 143.669631 45.857455 
L 144.156067 47.690182 
L 144.641939 49.522909 
L 145.125193 51.355636 
L 145.603732 53.188364 
L 146.075418 55.021091 
L 146.538085 56.853818 
L 146.989538 58.686545 
L 147.427562 60.519273 
L 147.849929 62.352 
L 148.254403 64.184727 
L 148.638753 66.017455 
L 149.00076 67.850182 
L 149.338237 69.682909 
L 149.649039 71.515636 
L 149.931091 73.348364 
L 150.182403 75.181091 
L 150.401101 77.013818 
L 150.585453 78.846545 
L 150.733898 80.679273 
L 150.845078 82.512 
L 150.91787 84.344727 
L 150.951413 86.177455 
L 150.945138 88.010182 
L 150.898793 89.842909 
L 150.812464 91.675636 
L 150.686591 93.508364 
L 150.521979 95.341091 
L 150.319798 97.173818 
L 150.081581 99.006545 
L 149.809212 100.839273 
L 149.504908 102.672 
L 149.171188 104.504727 
L 148.810843 106.337455 
L 148.426894 108.170182 
L 148.02255 110.002909 
L 147.601153 111.835636 
L 147.166132 113.668364 
L 146.72095 115.501091 
L 146.269046 117.333818 
L 145.813793 119.166545 
L 145.358443 120.999273 
L 144.90609 122.832 
L 144.459632 124.664727 
L 144.021741 126.497455 
L 143.594839 128.330182 
L 143.181089 130.162909 
L 142.782381 131.995636 
L 142.400341 133.828364 
L 142.036334 135.661091 
L 141.691481 137.493818 
L 141.366682 139.326545 
L 141.062637 141.159273 
L 140.779878 142.992 
L 140.518798 144.824727 
L 140.279679 146.657455 
L 140.062723 148.490182 
L 139.868081 150.322909 
L 139.695871 152.155636 
L 139.5462 153.988364 
L 139.419172 155.821091 
L 139.314901 157.653818 
L 139.233503 159.486545 
L 139.175094 161.319273 
L 139.139776 163.152 
L 139.127614 164.984727 
L 139.138617 166.817455 
L 139.172704 168.650182 
L 139.229678 170.482909 
L 139.30919 172.315636 
L 139.410704 174.148364 
L 139.533471 175.981091 
L 139.676496 177.813818 
L 139.838516 179.646545 
L 140.017982 181.479273 
L 140.213046 183.312 
L 140.421564 185.144727 
L 140.641093 186.977455 
L 140.868914 188.810182 
L 141.102055 190.642909 
L 141.33732 192.475636 
L 141.57134 194.308364 
L 141.800616 196.141091 
L 142.02158 197.973818 
L 142.230657 199.806545 
L 142.424328 201.639273 
L 142.599204 203.472 
L 142.752085 205.304727 
L 142.880034 207.137455 
L 142.980432 208.970182 
L 143.051035 210.802909 
L 143.090023 212.635636 
L 143.096037 214.468364 
L 143.068209 216.301091 
L 143.006177 218.133818 
L 142.91009 219.966545 
L 142.780605 221.799273 
L 142.618867 223.632 
z
" clip-path="url(#pf0d64951c9)" style="fill: #006ba4; fill-opacity: 0.3"/>
   </g>
   <g id="PolyCollection_3">
    <path d="M 213.832671 223.632 
L 186.889518 223.632 
L 186.148906 222.220305 
L 185.498283 220.808609 
L 184.94911 219.396914 
L 184.509949 217.985219 
L 184.186243 216.573523 
L 183.980259 215.161828 
L 183.891201 213.750133 
L 183.915459 212.338437 
L 184.04698 210.926742 
L 184.277705 209.515047 
L 184.598049 208.103351 
L 184.997378 206.691656 
L 185.464458 205.279961 
L 185.987835 203.868265 
L 186.556156 202.45657 
L 187.158401 201.044875 
L 187.784051 199.633179 
L 188.423185 198.221484 
L 189.066541 196.809789 
L 189.705544 195.398093 
L 190.332329 193.986398 
L 190.939776 192.574703 
L 191.521555 191.163007 
L 192.072197 189.751312 
L 192.587186 188.339617 
L 193.063055 186.927921 
L 193.497489 185.516226 
L 193.8894 184.104531 
L 194.238973 182.692835 
L 194.547667 181.28114 
L 194.818154 179.869445 
L 195.054195 178.457749 
L 195.260458 177.046054 
L 195.442284 175.634359 
L 195.605409 174.222663 
L 195.755665 172.810968 
L 195.898684 171.399273 
L 196.039619 169.987577 
L 196.182895 168.575882 
L 196.332029 167.164187 
L 196.489497 165.752491 
L 196.656684 164.340796 
L 196.833896 162.929101 
L 197.020435 161.517405 
L 197.214727 160.10571 
L 197.41449 158.694015 
L 197.616925 157.282319 
L 197.818919 155.870624 
L 198.017236 154.458929 
L 198.208703 153.047233 
L 198.390366 151.635538 
L 198.559613 150.223843 
L 198.714271 148.812147 
L 198.852669 147.400452 
L 198.97367 145.988757 
L 199.076678 144.577061 
L 199.16162 143.165366 
L 199.228915 141.753671 
L 199.279425 140.341975 
L 199.314402 138.93028 
L 199.335422 137.518585 
L 199.344317 136.106889 
L 199.343112 134.695194 
L 199.333952 133.283499 
L 199.319038 131.871803 
L 199.300559 130.460108 
L 199.280637 129.048413 
L 199.261261 127.636717 
L 199.244242 126.225022 
L 199.231166 124.813327 
L 199.223353 123.401631 
L 199.221826 121.989936 
L 199.22729 120.578241 
L 199.240119 119.166545 
L 199.260354 117.75485 
L 199.28771 116.343155 
L 199.321602 114.931459 
L 199.361172 113.519764 
L 199.405336 112.108069 
L 199.452836 110.696373 
L 199.502302 109.284678 
L 199.552316 107.872983 
L 199.601487 106.461287 
L 199.648512 105.049592 
L 199.692244 103.637897 
L 199.731746 102.226201 
L 199.766336 100.814506 
L 199.795614 99.402811 
L 199.819475 97.991115 
L 199.838108 96.57942 
L 199.851973 95.167725 
L 199.861765 93.756029 
L 199.868365 92.344334 
L 199.872777 90.932639 
L 199.87607 89.520943 
L 199.879303 88.109248 
L 199.883466 86.697553 
L 199.889426 85.285857 
L 199.897875 83.874162 
L 200.824314 83.874162 
L 200.824314 83.874162 
L 200.832763 85.285857 
L 200.838723 86.697553 
L 200.842886 88.109248 
L 200.846119 89.520943 
L 200.849411 90.932639 
L 200.853824 92.344334 
L 200.860423 93.756029 
L 200.870216 95.167725 
L 200.884081 96.57942 
L 200.902714 97.991115 
L 200.926575 99.402811 
L 200.955852 100.814506 
L 200.990442 102.226201 
L 201.029945 103.637897 
L 201.073677 105.049592 
L 201.120702 106.461287 
L 201.169872 107.872983 
L 201.219887 109.284678 
L 201.269353 110.696373 
L 201.316853 112.108069 
L 201.361017 113.519764 
L 201.400587 114.931459 
L 201.434479 116.343155 
L 201.461835 117.75485 
L 201.482069 119.166545 
L 201.494898 120.578241 
L 201.500363 121.989936 
L 201.498835 123.401631 
L 201.491022 124.813327 
L 201.477946 126.225022 
L 201.460928 127.636717 
L 201.441552 129.048413 
L 201.421629 130.460108 
L 201.403151 131.871803 
L 201.388237 133.283499 
L 201.379077 134.695194 
L 201.377872 136.106889 
L 201.386767 137.518585 
L 201.407786 138.93028 
L 201.442763 140.341975 
L 201.493274 141.753671 
L 201.560569 143.165366 
L 201.645511 144.577061 
L 201.748519 145.988757 
L 201.86952 147.400452 
L 202.007918 148.812147 
L 202.162576 150.223843 
L 202.331823 151.635538 
L 202.513485 153.047233 
L 202.704953 154.458929 
L 202.90327 155.870624 
L 203.105263 157.282319 
L 203.307699 158.694015 
L 203.507462 160.10571 
L 203.701754 161.517405 
L 203.888292 162.929101 
L 204.065505 164.340796 
L 204.232692 165.752491 
L 204.39016 167.164187 
L 204.539293 168.575882 
L 204.68257 169.987577 
L 204.823504 171.399273 
L 204.966524 172.810968 
L 205.11678 174.222663 
L 205.279904 175.634359 
L 205.46173 177.046054 
L 205.667994 178.457749 
L 205.904035 179.869445 
L 206.174521 181.28114 
L 206.483216 182.692835 
L 206.832789 184.104531 
L 207.224699 185.516226 
L 207.659133 186.927921 
L 208.135003 188.339617 
L 208.649991 189.751312 
L 209.200634 191.163007 
L 209.782412 192.574703 
L 210.389859 193.986398 
L 211.016645 195.398093 
L 211.655647 196.809789 
L 212.299004 198.221484 
L 212.938138 199.633179 
L 213.563788 201.044875 
L 214.166033 202.45657 
L 214.734354 203.868265 
L 215.257731 205.279961 
L 215.72481 206.691656 
L 216.12414 208.103351 
L 216.444484 209.515047 
L 216.675209 210.926742 
L 216.80673 212.338437 
L 216.830988 213.750133 
L 216.741929 215.161828 
L 216.535945 216.573523 
L 216.212239 217.985219 
L 215.773079 219.396914 
L 215.223906 220.808609 
L 214.573283 222.220305 
L 213.832671 223.632 
z
" clip-path="url(#pf0d64951c9)" style="fill: #006ba4; fill-opacity: 0.3"/>
   </g>
   <g id="PolyCollection_4">
    <path d="M 280.872336 223.632 
L 251.609003 223.632 
L 251.060675 222.814703 
L 250.603108 221.997405 
L 250.242625 221.180108 
L 249.983173 220.362811 
L 249.826222 219.545514 
L 249.770776 218.728216 
L 249.813464 217.910919 
L 249.948745 217.093622 
L 250.169173 216.276324 
L 250.465742 215.459027 
L 250.828259 214.64173 
L 251.245759 213.824432 
L 251.706913 213.007135 
L 252.200428 212.189838 
L 252.715416 211.372541 
L 253.241718 210.555243 
L 253.770175 209.737946 
L 254.292829 208.920649 
L 254.803066 208.103351 
L 255.295686 207.286054 
L 255.766909 206.468757 
L 256.214323 205.651459 
L 256.636783 204.834162 
L 257.034258 204.016865 
L 257.407658 203.199568 
L 257.758634 202.38227 
L 258.089372 201.564973 
L 258.402381 200.747676 
L 258.700301 199.930378 
L 258.985723 199.113081 
L 259.26104 198.295784 
L 259.528317 197.478486 
L 259.789211 196.661189 
L 260.044905 195.843892 
L 260.296092 195.026595 
L 260.54298 194.209297 
L 260.785327 193.392 
L 261.022498 192.574703 
L 261.253544 191.757405 
L 261.477289 190.940108 
L 261.692426 190.122811 
L 261.897621 189.305514 
L 262.091602 188.488216 
L 262.273254 187.670919 
L 262.441694 186.853622 
L 262.596335 186.036324 
L 262.736933 185.219027 
L 262.863611 184.40173 
L 262.976868 183.584432 
L 263.077568 182.767135 
L 263.166901 181.949838 
L 263.246339 181.132541 
L 263.317569 180.315243 
L 263.382418 179.497946 
L 263.442772 178.680649 
L 263.500489 177.863351 
L 263.55732 177.046054 
L 263.614835 176.228757 
L 263.674357 175.411459 
L 263.736914 174.594162 
L 263.803209 173.776865 
L 263.873607 172.959568 
L 263.948133 172.14227 
L 264.026503 171.324973 
L 264.10815 170.507676 
L 264.192282 169.690378 
L 264.277929 168.873081 
L 264.364011 168.055784 
L 264.449395 167.238486 
L 264.532958 166.421189 
L 264.613632 165.603892 
L 264.690458 164.786595 
L 264.762614 163.969297 
L 264.829443 163.152 
L 264.890464 162.334703 
L 264.945383 161.517405 
L 264.994082 160.700108 
L 265.036615 159.882811 
L 265.073192 159.065514 
L 265.104156 158.248216 
L 265.129971 157.430919 
L 265.151193 156.613622 
L 265.168456 155.796324 
L 265.182449 154.979027 
L 265.193897 154.16173 
L 265.203547 153.344432 
L 265.212146 152.527135 
L 265.220431 151.709838 
L 265.229108 150.892541 
L 265.238843 150.075243 
L 265.250243 149.257946 
L 265.263845 148.440649 
L 265.280102 147.623351 
L 265.299375 146.806054 
L 265.321919 145.988757 
L 265.347882 145.171459 
L 265.377296 144.354162 
L 265.410083 143.536865 
L 265.446055 142.719568 
L 267.035283 142.719568 
L 267.035283 142.719568 
L 267.071255 143.536865 
L 267.104042 144.354162 
L 267.133457 145.171459 
L 267.15942 145.988757 
L 267.181964 146.806054 
L 267.201237 147.623351 
L 267.217494 148.440649 
L 267.231096 149.257946 
L 267.242496 150.075243 
L 267.25223 150.892541 
L 267.260908 151.709838 
L 267.269192 152.527135 
L 267.277791 153.344432 
L 267.287441 154.16173 
L 267.29889 154.979027 
L 267.312883 155.796324 
L 267.330146 156.613622 
L 267.351368 157.430919 
L 267.377182 158.248216 
L 267.408147 159.065514 
L 267.444723 159.882811 
L 267.487257 160.700108 
L 267.535956 161.517405 
L 267.590874 162.334703 
L 267.651896 163.152 
L 267.718724 163.969297 
L 267.790881 164.786595 
L 267.867707 165.603892 
L 267.948381 166.421189 
L 268.031943 167.238486 
L 268.117328 168.055784 
L 268.20341 168.873081 
L 268.289057 169.690378 
L 268.373188 170.507676 
L 268.454836 171.324973 
L 268.533205 172.14227 
L 268.607732 172.959568 
L 268.678129 173.776865 
L 268.744425 174.594162 
L 268.806982 175.411459 
L 268.866503 176.228757 
L 268.924018 177.046054 
L 268.98085 177.863351 
L 269.038567 178.680649 
L 269.09892 179.497946 
L 269.16377 180.315243 
L 269.235 181.132541 
L 269.314438 181.949838 
L 269.403771 182.767135 
L 269.50447 183.584432 
L 269.617728 184.40173 
L 269.744406 185.219027 
L 269.885003 186.036324 
L 270.039644 186.853622 
L 270.208084 187.670919 
L 270.389737 188.488216 
L 270.583718 189.305514 
L 270.788912 190.122811 
L 271.00405 190.940108 
L 271.227794 191.757405 
L 271.45884 192.574703 
L 271.696011 193.392 
L 271.938358 194.209297 
L 272.185246 195.026595 
L 272.436434 195.843892 
L 272.692128 196.661189 
L 272.953021 197.478486 
L 273.220299 198.295784 
L 273.495615 199.113081 
L 273.781038 199.930378 
L 274.078958 200.747676 
L 274.391967 201.564973 
L 274.722704 202.38227 
L 275.073681 203.199568 
L 275.447081 204.016865 
L 275.844556 204.834162 
L 276.267015 205.651459 
L 276.71443 206.468757 
L 277.185653 207.286054 
L 277.678273 208.103351 
L 278.18851 208.920649 
L 278.711164 209.737946 
L 279.23962 210.555243 
L 279.765923 211.372541 
L 280.280911 212.189838 
L 280.774425 213.007135 
L 281.235579 213.824432 
L 281.653079 214.64173 
L 282.015597 215.459027 
L 282.312165 216.276324 
L 282.532594 217.093622 
L 282.667875 217.910919 
L 282.710563 218.728216 
L 282.655116 219.545514 
L 282.498166 220.362811 
L 282.238713 221.180108 
L 281.87823 221.997405 
L 281.420664 222.814703 
L 280.872336 223.632 
z
" clip-path="url(#pf0d64951c9)" style="fill: #006ba4; fill-opacity: 0.3"/>
   </g>
   <g id="matplotlib.axis_1">
    <g id="xtick_1">
     <g id="line2d_1">
      <defs>
       <path id="mba4a32621f" d="M 0 0 
L 0 3.5 
" style="stroke: #000000; stroke-width: 1.2"/>
      </defs>
      <g>
       <use xlink:href="#mba4a32621f" x="68.601944" y="232.704" style="stroke: #000000; stroke-width: 1.2"/>
      </g>
     </g>
     <g id="text_1">
      <!-- Trivial -->
      <g transform="translate(54.039444 247.302437)scale(0.1 -0.1)">
       <defs>
        <path id="DejaVuSans-54" d="M -19 4666 
L 3928 4666 
L 3928 4134 
L 2272 4134 
L 2272 0 
L 1638 0 
L 1638 4134 
L -19 4134 
L -19 4666 
z
" transform="scale(0.015625)"/>
        <path id="DejaVuSans-72" d="M 2631 2963 
Q 2534 3019 2420 3045 
Q 2306 3072 2169 3072 
Q 1681 3072 1420 2755 
Q 1159 2438 1159 1844 
L 1159 0 
L 581 0 
L 581 3500 
L 1159 3500 
L 1159 2956 
Q 1341 3275 1631 3429 
Q 1922 3584 2338 3584 
Q 2397 3584 2469 3576 
Q 2541 3569 2628 3553 
L 2631 2963 
z
" transform="scale(0.015625)"/>
        <path id="DejaVuSans-69" d="M 603 3500 
L 1178 3500 
L 1178 0 
L 603 0 
L 603 3500 
z
M 603 4863 
L 1178 4863 
L 1178 4134 
L 603 4134 
L 603 4863 
z
" transform="scale(0.015625)"/>
        <path id="DejaVuSans-76" d="M 191 3500 
L 800 3500 
L 1894 563 
L 2988 3500 
L 3597 3500 
L 2284 0 
L 1503 0 
L 191 3500 
z
" transform="scale(0.015625)"/>
        <path id="DejaVuSans-61" d="M 2194 1759 
Q 1497 1759 1228 1600 
Q 959 1441 959 1056 
Q 959 750 1161 570 
Q 1363 391 1709 391 
Q 2188 391 2477 730 
Q 2766 1069 2766 1631 
L 2766 1759 
L 2194 1759 
z
M 3341 1997 
L 3341 0 
L 2766 0 
L 2766 531 
Q 2569 213 2275 61 
Q 1981 -91 1556 -91 
Q 1019 -91 701 211 
Q 384 513 384 1019 
Q 384 1609 779 1909 
Q 1175 2209 1959 2209 
L 2766 2209 
L 2766 2266 
Q 2766 2663 2505 2880 
Q 2244 3097 1772 3097 
Q 1472 3097 1187 3025 
Q 903 2953 641 2809 
L 641 3341 
Q 956 3463 1253 3523 
Q 1550 3584 1831 3584 
Q 2591 3584 2966 3190 
Q 3341 2797 3341 1997 
z
" transform="scale(0.015625)"/>
        <path id="DejaVuSans-6c" d="M 603 4863 
L 1178 4863 
L 1178 0 
L 603 0 
L 603 4863 
z
" transform="scale(0.015625)"/>
       </defs>
       <use xlink:href="#DejaVuSans-54"/>
       <use xlink:href="#DejaVuSans-72" x="46.333984"/>
       <use xlink:href="#DejaVuSans-69" x="87.447266"/>
       <use xlink:href="#DejaVuSans-76" x="115.230469"/>
       <use xlink:href="#DejaVuSans-69" x="174.410156"/>
       <use xlink:href="#DejaVuSans-61" x="202.193359"/>
       <use xlink:href="#DejaVuSans-6c" x="263.472656"/>
      </g>
     </g>
    </g>
    <g id="xtick_2">
     <g id="line2d_2">
      <g>
       <use xlink:href="#mba4a32621f" x="134.481519" y="232.704" style="stroke: #000000; stroke-width: 1.2"/>
      </g>
     </g>
     <g id="text_2">
      <!-- Training Data -->
      <g transform="translate(101.228394 247.302437)scale(0.1 -0.1)">
       <defs>
        <path id="DejaVuSans-6e" d="M 3513 2113 
L 3513 0 
L 2938 0 
L 2938 2094 
Q 2938 2591 2744 2837 
Q 2550 3084 2163 3084 
Q 1697 3084 1428 2787 
Q 1159 2491 1159 1978 
L 1159 0 
L 581 0 
L 581 3500 
L 1159 3500 
L 1159 2956 
Q 1366 3272 1645 3428 
Q 1925 3584 2291 3584 
Q 2894 3584 3203 3211 
Q 3513 2838 3513 2113 
z
" transform="scale(0.015625)"/>
        <path id="DejaVuSans-67" d="M 2906 1791 
Q 2906 2416 2648 2759 
Q 2391 3103 1925 3103 
Q 1463 3103 1205 2759 
Q 947 2416 947 1791 
Q 947 1169 1205 825 
Q 1463 481 1925 481 
Q 2391 481 2648 825 
Q 2906 1169 2906 1791 
z
M 3481 434 
Q 3481 -459 3084 -895 
Q 2688 -1331 1869 -1331 
Q 1566 -1331 1297 -1286 
Q 1028 -1241 775 -1147 
L 775 -588 
Q 1028 -725 1275 -790 
Q 1522 -856 1778 -856 
Q 2344 -856 2625 -561 
Q 2906 -266 2906 331 
L 2906 616 
Q 2728 306 2450 153 
Q 2172 0 1784 0 
Q 1141 0 747 490 
Q 353 981 353 1791 
Q 353 2603 747 3093 
Q 1141 3584 1784 3584 
Q 2172 3584 2450 3431 
Q 2728 3278 2906 2969 
L 2906 3500 
L 3481 3500 
L 3481 434 
z
" transform="scale(0.015625)"/>
        <path id="DejaVuSans-20" transform="scale(0.015625)"/>
        <path id="DejaVuSans-44" d="M 1259 4147 
L 1259 519 
L 2022 519 
Q 2988 519 3436 956 
Q 3884 1394 3884 2338 
Q 3884 3275 3436 3711 
Q 2988 4147 2022 4147 
L 1259 4147 
z
M 628 4666 
L 1925 4666 
Q 3281 4666 3915 4102 
Q 4550 3538 4550 2338 
Q 4550 1131 3912 565 
Q 3275 0 1925 0 
L 628 0 
L 628 4666 
z
" transform="scale(0.015625)"/>
        <path id="DejaVuSans-74" d="M 1172 4494 
L 1172 3500 
L 2356 3500 
L 2356 3053 
L 1172 3053 
L 1172 1153 
Q 1172 725 1289 603 
Q 1406 481 1766 481 
L 2356 481 
L 2356 0 
L 1766 0 
Q 1100 0 847 248 
Q 594 497 594 1153 
L 594 3053 
L 172 3053 
L 172 3500 
L 594 3500 
L 594 4494 
L 1172 4494 
z
" transform="scale(0.015625)"/>
       </defs>
       <use xlink:href="#DejaVuSans-54"/>
       <use xlink:href="#DejaVuSans-72" x="46.333984"/>
       <use xlink:href="#DejaVuSans-61" x="87.447266"/>
       <use xlink:href="#DejaVuSans-69" x="148.726562"/>
       <use xlink:href="#DejaVuSans-6e" x="176.509766"/>
       <use xlink:href="#DejaVuSans-69" x="239.888672"/>
       <use xlink:href="#DejaVuSans-6e" x="267.671875"/>
       <use xlink:href="#DejaVuSans-67" x="331.050781"/>
       <use xlink:href="#DejaVuSans-20" x="394.527344"/>
       <use xlink:href="#DejaVuSans-44" x="426.314453"/>
       <use xlink:href="#DejaVuSans-61" x="503.316406"/>
       <use xlink:href="#DejaVuSans-74" x="564.595703"/>
       <use xlink:href="#DejaVuSans-61" x="603.804688"/>
      </g>
     </g>
    </g>
    <g id="xtick_3">
     <g id="line2d_3">
      <g>
       <use xlink:href="#mba4a32621f" x="200.361094" y="232.704" style="stroke: #000000; stroke-width: 1.2"/>
      </g>
     </g>
     <g id="text_3">
      <!-- Jackknife -->
      <g transform="translate(177.887657 247.302437)scale(0.1 -0.1)">
       <defs>
        <path id="DejaVuSans-4a" d="M 628 4666 
L 1259 4666 
L 1259 325 
Q 1259 -519 939 -900 
Q 619 -1281 -91 -1281 
L -331 -1281 
L -331 -750 
L -134 -750 
Q 284 -750 456 -515 
Q 628 -281 628 325 
L 628 4666 
z
" transform="scale(0.015625)"/>
        <path id="DejaVuSans-63" d="M 3122 3366 
L 3122 2828 
Q 2878 2963 2633 3030 
Q 2388 3097 2138 3097 
Q 1578 3097 1268 2742 
Q 959 2388 959 1747 
Q 959 1106 1268 751 
Q 1578 397 2138 397 
Q 2388 397 2633 464 
Q 2878 531 3122 666 
L 3122 134 
Q 2881 22 2623 -34 
Q 2366 -91 2075 -91 
Q 1284 -91 818 406 
Q 353 903 353 1747 
Q 353 2603 823 3093 
Q 1294 3584 2113 3584 
Q 2378 3584 2631 3529 
Q 2884 3475 3122 3366 
z
" transform="scale(0.015625)"/>
        <path id="DejaVuSans-6b" d="M 581 4863 
L 1159 4863 
L 1159 1991 
L 2875 3500 
L 3609 3500 
L 1753 1863 
L 3688 0 
L 2938 0 
L 1159 1709 
L 1159 0 
L 581 0 
L 581 4863 
z
" transform="scale(0.015625)"/>
        <path id="DejaVuSans-66" d="M 2375 4863 
L 2375 4384 
L 1825 4384 
Q 1516 4384 1395 4259 
Q 1275 4134 1275 3809 
L 1275 3500 
L 2222 3500 
L 2222 3053 
L 1275 3053 
L 1275 0 
L 697 0 
L 697 3053 
L 147 3053 
L 147 3500 
L 697 3500 
L 697 3744 
Q 697 4328 969 4595 
Q 1241 4863 1831 4863 
L 2375 4863 
z
" transform="scale(0.015625)"/>
        <path id="DejaVuSans-65" d="M 3597 1894 
L 3597 1613 
L 953 1613 
Q 991 1019 1311 708 
Q 1631 397 2203 397 
Q 2534 397 2845 478 
Q 3156 559 3463 722 
L 3463 178 
Q 3153 47 2828 -22 
Q 2503 -91 2169 -91 
Q 1331 -91 842 396 
Q 353 884 353 1716 
Q 353 2575 817 3079 
Q 1281 3584 2069 3584 
Q 2775 3584 3186 3129 
Q 3597 2675 3597 1894 
z
M 3022 2063 
Q 3016 2534 2758 2815 
Q 2500 3097 2075 3097 
Q 1594 3097 1305 2825 
Q 1016 2553 972 2059 
L 3022 2063 
z
" transform="scale(0.015625)"/>
       </defs>
       <use xlink:href="#DejaVuSans-4a"/>
       <use xlink:href="#DejaVuSans-61" x="29.492188"/>
       <use xlink:href="#DejaVuSans-63" x="90.771484"/>
       <use xlink:href="#DejaVuSans-6b" x="145.751953"/>
       <use xlink:href="#DejaVuSans-6b" x="203.662109"/>
       <use xlink:href="#DejaVuSans-6e" x="261.572266"/>
       <use xlink:href="#DejaVuSans-69" x="324.951172"/>
       <use xlink:href="#DejaVuSans-66" x="352.734375"/>
       <use xlink:href="#DejaVuSans-65" x="387.939453"/>
      </g>
     </g>
    </g>
    <g id="xtick_4">
     <g id="line2d_4">
      <g>
       <use xlink:href="#mba4a32621f" x="266.240669" y="232.704" style="stroke: #000000; stroke-width: 1.2"/>
      </g>
     </g>
     <g id="text_4">
      <!-- Bootstrap -->
      <g transform="translate(241.872701 247.302437)scale(0.1 -0.1)">
       <defs>
        <path id="DejaVuSans-42" d="M 1259 2228 
L 1259 519 
L 2272 519 
Q 2781 519 3026 730 
Q 3272 941 3272 1375 
Q 3272 1813 3026 2020 
Q 2781 2228 2272 2228 
L 1259 2228 
z
M 1259 4147 
L 1259 2741 
L 2194 2741 
Q 2656 2741 2882 2914 
Q 3109 3088 3109 3444 
Q 3109 3797 2882 3972 
Q 2656 4147 2194 4147 
L 1259 4147 
z
M 628 4666 
L 2241 4666 
Q 2963 4666 3353 4366 
Q 3744 4066 3744 3513 
Q 3744 3084 3544 2831 
Q 3344 2578 2956 2516 
Q 3422 2416 3680 2098 
Q 3938 1781 3938 1306 
Q 3938 681 3513 340 
Q 3088 0 2303 0 
L 628 0 
L 628 4666 
z
" transform="scale(0.015625)"/>
        <path id="DejaVuSans-6f" d="M 1959 3097 
Q 1497 3097 1228 2736 
Q 959 2375 959 1747 
Q 959 1119 1226 758 
Q 1494 397 1959 397 
Q 2419 397 2687 759 
Q 2956 1122 2956 1747 
Q 2956 2369 2687 2733 
Q 2419 3097 1959 3097 
z
M 1959 3584 
Q 2709 3584 3137 3096 
Q 3566 2609 3566 1747 
Q 3566 888 3137 398 
Q 2709 -91 1959 -91 
Q 1206 -91 779 398 
Q 353 888 353 1747 
Q 353 2609 779 3096 
Q 1206 3584 1959 3584 
z
" transform="scale(0.015625)"/>
        <path id="DejaVuSans-73" d="M 2834 3397 
L 2834 2853 
Q 2591 2978 2328 3040 
Q 2066 3103 1784 3103 
Q 1356 3103 1142 2972 
Q 928 2841 928 2578 
Q 928 2378 1081 2264 
Q 1234 2150 1697 2047 
L 1894 2003 
Q 2506 1872 2764 1633 
Q 3022 1394 3022 966 
Q 3022 478 2636 193 
Q 2250 -91 1575 -91 
Q 1294 -91 989 -36 
Q 684 19 347 128 
L 347 722 
Q 666 556 975 473 
Q 1284 391 1588 391 
Q 1994 391 2212 530 
Q 2431 669 2431 922 
Q 2431 1156 2273 1281 
Q 2116 1406 1581 1522 
L 1381 1569 
Q 847 1681 609 1914 
Q 372 2147 372 2553 
Q 372 3047 722 3315 
Q 1072 3584 1716 3584 
Q 2034 3584 2315 3537 
Q 2597 3491 2834 3397 
z
" transform="scale(0.015625)"/>
        <path id="DejaVuSans-70" d="M 1159 525 
L 1159 -1331 
L 581 -1331 
L 581 3500 
L 1159 3500 
L 1159 2969 
Q 1341 3281 1617 3432 
Q 1894 3584 2278 3584 
Q 2916 3584 3314 3078 
Q 3713 2572 3713 1747 
Q 3713 922 3314 415 
Q 2916 -91 2278 -91 
Q 1894 -91 1617 61 
Q 1341 213 1159 525 
z
M 3116 1747 
Q 3116 2381 2855 2742 
Q 2594 3103 2138 3103 
Q 1681 3103 1420 2742 
Q 1159 2381 1159 1747 
Q 1159 1113 1420 752 
Q 1681 391 2138 391 
Q 2594 391 2855 752 
Q 3116 1113 3116 1747 
z
" transform="scale(0.015625)"/>
       </defs>
       <use xlink:href="#DejaVuSans-42"/>
       <use xlink:href="#DejaVuSans-6f" x="68.603516"/>
       <use xlink:href="#DejaVuSans-6f" x="129.785156"/>
       <use xlink:href="#DejaVuSans-74" x="190.966797"/>
       <use xlink:href="#DejaVuSans-73" x="230.175781"/>
       <use xlink:href="#DejaVuSans-74" x="282.275391"/>
       <use xlink:href="#DejaVuSans-72" x="321.484375"/>
       <use xlink:href="#DejaVuSans-61" x="362.597656"/>
       <use xlink:href="#DejaVuSans-70" x="423.876953"/>
      </g>
     </g>
    </g>
   </g>
   <g id="matplotlib.axis_2">
    <g id="ytick_1">
     <g id="line2d_5">
      <defs>
       <path id="mc3231811bd" d="M 0 0 
L -3.5 0 
" style="stroke: #000000; stroke-width: 1.2"/>
      </defs>
      <g>
       <use xlink:href="#mc3231811bd" x="40.603125" y="226.083892" style="stroke: #000000; stroke-width: 1.2"/>
      </g>
     </g>
     <g id="text_5">
      <!-- 0 -->
      <g transform="translate(27.240625 229.883111)scale(0.1 -0.1)">
       <defs>
        <path id="DejaVuSans-30" d="M 2034 4250 
Q 1547 4250 1301 3770 
Q 1056 3291 1056 2328 
Q 1056 1369 1301 889 
Q 1547 409 2034 409 
Q 2525 409 2770 889 
Q 3016 1369 3016 2328 
Q 3016 3291 2770 3770 
Q 2525 4250 2034 4250 
z
M 2034 4750 
Q 2819 4750 3233 4129 
Q 3647 3509 3647 2328 
Q 3647 1150 3233 529 
Q 2819 -91 2034 -91 
Q 1250 -91 836 529 
Q 422 1150 422 2328 
Q 422 3509 836 4129 
Q 1250 4750 2034 4750 
z
" transform="scale(0.015625)"/>
       </defs>
       <use xlink:href="#DejaVuSans-30"/>
      </g>
     </g>
    </g>
    <g id="ytick_2">
     <g id="line2d_6">
      <g>
       <use xlink:href="#mc3231811bd" x="40.603125" y="140.267676" style="stroke: #000000; stroke-width: 1.2"/>
      </g>
     </g>
     <g id="text_6">
      <!-- 35 -->
      <g transform="translate(20.878125 144.066894)scale(0.1 -0.1)">
       <defs>
        <path id="DejaVuSans-33" d="M 2597 2516 
Q 3050 2419 3304 2112 
Q 3559 1806 3559 1356 
Q 3559 666 3084 287 
Q 2609 -91 1734 -91 
Q 1441 -91 1130 -33 
Q 819 25 488 141 
L 488 750 
Q 750 597 1062 519 
Q 1375 441 1716 441 
Q 2309 441 2620 675 
Q 2931 909 2931 1356 
Q 2931 1769 2642 2001 
Q 2353 2234 1838 2234 
L 1294 2234 
L 1294 2753 
L 1863 2753 
Q 2328 2753 2575 2939 
Q 2822 3125 2822 3475 
Q 2822 3834 2567 4026 
Q 2313 4219 1838 4219 
Q 1578 4219 1281 4162 
Q 984 4106 628 3988 
L 628 4550 
Q 988 4650 1302 4700 
Q 1616 4750 1894 4750 
Q 2613 4750 3031 4423 
Q 3450 4097 3450 3541 
Q 3450 3153 3228 2886 
Q 3006 2619 2597 2516 
z
" transform="scale(0.015625)"/>
        <path id="DejaVuSans-35" d="M 691 4666 
L 3169 4666 
L 3169 4134 
L 1269 4134 
L 1269 2991 
Q 1406 3038 1543 3061 
Q 1681 3084 1819 3084 
Q 2600 3084 3056 2656 
Q 3513 2228 3513 1497 
Q 3513 744 3044 326 
Q 2575 -91 1722 -91 
Q 1428 -91 1123 -41 
Q 819 9 494 109 
L 494 744 
Q 775 591 1075 516 
Q 1375 441 1709 441 
Q 2250 441 2565 725 
Q 2881 1009 2881 1497 
Q 2881 1984 2565 2268 
Q 2250 2553 1709 2553 
Q 1456 2553 1204 2497 
Q 953 2441 691 2322 
L 691 4666 
z
" transform="scale(0.015625)"/>
       </defs>
       <use xlink:href="#DejaVuSans-33"/>
       <use xlink:href="#DejaVuSans-35" x="63.623047"/>
      </g>
     </g>
    </g>
    <g id="ytick_3">
     <g id="line2d_7">
      <g>
       <use xlink:href="#mc3231811bd" x="40.603125" y="54.451459" style="stroke: #000000; stroke-width: 1.2"/>
      </g>
     </g>
     <g id="text_7">
      <!-- 70 -->
      <g transform="translate(20.878125 58.250678)scale(0.1 -0.1)">
       <defs>
        <path id="DejaVuSans-37" d="M 525 4666 
L 3525 4666 
L 3525 4397 
L 1831 0 
L 1172 0 
L 2766 4134 
L 525 4134 
L 525 4666 
z
" transform="scale(0.015625)"/>
       </defs>
       <use xlink:href="#DejaVuSans-37"/>
       <use xlink:href="#DejaVuSans-30" x="63.623047"/>
      </g>
     </g>
    </g>
    <g id="text_8">
     <!-- Number of SL Rounds -->
     <g transform="translate(14.798438 186.969812)rotate(-90)scale(0.1 -0.1)">
      <defs>
       <path id="DejaVuSans-4e" d="M 628 4666 
L 1478 4666 
L 3547 763 
L 3547 4666 
L 4159 4666 
L 4159 0 
L 3309 0 
L 1241 3903 
L 1241 0 
L 628 0 
L 628 4666 
z
" transform="scale(0.015625)"/>
       <path id="DejaVuSans-75" d="M 544 1381 
L 544 3500 
L 1119 3500 
L 1119 1403 
Q 1119 906 1312 657 
Q 1506 409 1894 409 
Q 2359 409 2629 706 
Q 2900 1003 2900 1516 
L 2900 3500 
L 3475 3500 
L 3475 0 
L 2900 0 
L 2900 538 
Q 2691 219 2414 64 
Q 2138 -91 1772 -91 
Q 1169 -91 856 284 
Q 544 659 544 1381 
z
M 1991 3584 
L 1991 3584 
z
" transform="scale(0.015625)"/>
       <path id="DejaVuSans-6d" d="M 3328 2828 
Q 3544 3216 3844 3400 
Q 4144 3584 4550 3584 
Q 5097 3584 5394 3201 
Q 5691 2819 5691 2113 
L 5691 0 
L 5113 0 
L 5113 2094 
Q 5113 2597 4934 2840 
Q 4756 3084 4391 3084 
Q 3944 3084 3684 2787 
Q 3425 2491 3425 1978 
L 3425 0 
L 2847 0 
L 2847 2094 
Q 2847 2600 2669 2842 
Q 2491 3084 2119 3084 
Q 1678 3084 1418 2786 
Q 1159 2488 1159 1978 
L 1159 0 
L 581 0 
L 581 3500 
L 1159 3500 
L 1159 2956 
Q 1356 3278 1631 3431 
Q 1906 3584 2284 3584 
Q 2666 3584 2933 3390 
Q 3200 3197 3328 2828 
z
" transform="scale(0.015625)"/>
       <path id="DejaVuSans-62" d="M 3116 1747 
Q 3116 2381 2855 2742 
Q 2594 3103 2138 3103 
Q 1681 3103 1420 2742 
Q 1159 2381 1159 1747 
Q 1159 1113 1420 752 
Q 1681 391 2138 391 
Q 2594 391 2855 752 
Q 3116 1113 3116 1747 
z
M 1159 2969 
Q 1341 3281 1617 3432 
Q 1894 3584 2278 3584 
Q 2916 3584 3314 3078 
Q 3713 2572 3713 1747 
Q 3713 922 3314 415 
Q 2916 -91 2278 -91 
Q 1894 -91 1617 61 
Q 1341 213 1159 525 
L 1159 0 
L 581 0 
L 581 4863 
L 1159 4863 
L 1159 2969 
z
" transform="scale(0.015625)"/>
       <path id="DejaVuSans-53" d="M 3425 4513 
L 3425 3897 
Q 3066 4069 2747 4153 
Q 2428 4238 2131 4238 
Q 1616 4238 1336 4038 
Q 1056 3838 1056 3469 
Q 1056 3159 1242 3001 
Q 1428 2844 1947 2747 
L 2328 2669 
Q 3034 2534 3370 2195 
Q 3706 1856 3706 1288 
Q 3706 609 3251 259 
Q 2797 -91 1919 -91 
Q 1588 -91 1214 -16 
Q 841 59 441 206 
L 441 856 
Q 825 641 1194 531 
Q 1563 422 1919 422 
Q 2459 422 2753 634 
Q 3047 847 3047 1241 
Q 3047 1584 2836 1778 
Q 2625 1972 2144 2069 
L 1759 2144 
Q 1053 2284 737 2584 
Q 422 2884 422 3419 
Q 422 4038 858 4394 
Q 1294 4750 2059 4750 
Q 2388 4750 2728 4690 
Q 3069 4631 3425 4513 
z
" transform="scale(0.015625)"/>
       <path id="DejaVuSans-4c" d="M 628 4666 
L 1259 4666 
L 1259 531 
L 3531 531 
L 3531 0 
L 628 0 
L 628 4666 
z
" transform="scale(0.015625)"/>
       <path id="DejaVuSans-52" d="M 2841 2188 
Q 3044 2119 3236 1894 
Q 3428 1669 3622 1275 
L 4263 0 
L 3584 0 
L 2988 1197 
Q 2756 1666 2539 1819 
Q 2322 1972 1947 1972 
L 1259 1972 
L 1259 0 
L 628 0 
L 628 4666 
L 2053 4666 
Q 2853 4666 3247 4331 
Q 3641 3997 3641 3322 
Q 3641 2881 3436 2590 
Q 3231 2300 2841 2188 
z
M 1259 4147 
L 1259 2491 
L 2053 2491 
Q 2509 2491 2742 2702 
Q 2975 2913 2975 3322 
Q 2975 3731 2742 3939 
Q 2509 4147 2053 4147 
L 1259 4147 
z
" transform="scale(0.015625)"/>
       <path id="DejaVuSans-64" d="M 2906 2969 
L 2906 4863 
L 3481 4863 
L 3481 0 
L 2906 0 
L 2906 525 
Q 2725 213 2448 61 
Q 2172 -91 1784 -91 
Q 1150 -91 751 415 
Q 353 922 353 1747 
Q 353 2572 751 3078 
Q 1150 3584 1784 3584 
Q 2172 3584 2448 3432 
Q 2725 3281 2906 2969 
z
M 947 1747 
Q 947 1113 1208 752 
Q 1469 391 1925 391 
Q 2381 391 2643 752 
Q 2906 1113 2906 1747 
Q 2906 2381 2643 2742 
Q 2381 3103 1925 3103 
Q 1469 3103 1208 2742 
Q 947 2381 947 1747 
z
" transform="scale(0.015625)"/>
      </defs>
      <use xlink:href="#DejaVuSans-4e"/>
      <use xlink:href="#DejaVuSans-75" x="74.804688"/>
      <use xlink:href="#DejaVuSans-6d" x="138.183594"/>
      <use xlink:href="#DejaVuSans-62" x="235.595703"/>
      <use xlink:href="#DejaVuSans-65" x="299.072266"/>
      <use xlink:href="#DejaVuSans-72" x="360.595703"/>
      <use xlink:href="#DejaVuSans-20" x="401.708984"/>
      <use xlink:href="#DejaVuSans-6f" x="433.496094"/>
      <use xlink:href="#DejaVuSans-66" x="494.677734"/>
      <use xlink:href="#DejaVuSans-20" x="529.882812"/>
      <use xlink:href="#DejaVuSans-53" x="561.669922"/>
      <use xlink:href="#DejaVuSans-4c" x="625.146484"/>
      <use xlink:href="#DejaVuSans-20" x="680.859375"/>
      <use xlink:href="#DejaVuSans-52" x="712.646484"/>
      <use xlink:href="#DejaVuSans-6f" x="777.628906"/>
      <use xlink:href="#DejaVuSans-75" x="838.810547"/>
      <use xlink:href="#DejaVuSans-6e" x="902.189453"/>
      <use xlink:href="#DejaVuSans-64" x="965.568359"/>
      <use xlink:href="#DejaVuSans-73" x="1029.044922"/>
     </g>
    </g>
   </g>
   <g id="LineCollection_1">
    <path d="M 60.366997 120.652541 
L 76.836891 120.652541 
" clip-path="url(#pf0d64951c9)" style="fill: none; stroke: #006ba4; stroke-width: 1.5"/>
    <path d="M 126.246572 101.037405 
L 142.716466 101.037405 
" clip-path="url(#pf0d64951c9)" style="fill: none; stroke: #006ba4; stroke-width: 1.5"/>
    <path d="M 192.126147 208.920649 
L 208.596041 208.920649 
" clip-path="url(#pf0d64951c9)" style="fill: none; stroke: #006ba4; stroke-width: 1.5"/>
    <path d="M 258.005722 215.050378 
L 274.475616 215.050378 
" clip-path="url(#pf0d64951c9)" style="fill: none; stroke: #006ba4; stroke-width: 1.5"/>
   </g>
   <g id="LineCollection_2">
    <path d="M 60.366997 221.180108 
L 76.836891 221.180108 
" clip-path="url(#pf0d64951c9)" style="fill: none; stroke: #006ba4; stroke-width: 1.5"/>
    <path d="M 60.366997 76.518486 
L 76.836891 76.518486 
" clip-path="url(#pf0d64951c9)" style="fill: none; stroke: #006ba4; stroke-width: 1.5"/>
    <path d="M 126.246572 220.812324 
L 142.716466 220.812324 
" clip-path="url(#pf0d64951c9)" style="fill: none; stroke: #006ba4; stroke-width: 1.5"/>
    <path d="M 126.246572 49.915459 
L 142.716466 49.915459 
" clip-path="url(#pf0d64951c9)" style="fill: none; stroke: #006ba4; stroke-width: 1.5"/>
    <path d="M 192.126147 223.632 
L 208.596041 223.632 
" clip-path="url(#pf0d64951c9)" style="fill: none; stroke: #006ba4; stroke-width: 1.5"/>
    <path d="M 192.126147 133.770162 
L 208.596041 133.770162 
" clip-path="url(#pf0d64951c9)" style="fill: none; stroke: #006ba4; stroke-width: 1.5"/>
    <path d="M 258.005722 223.632 
L 274.475616 223.632 
" clip-path="url(#pf0d64951c9)" style="fill: none; stroke: #006ba4; stroke-width: 1.5"/>
    <path d="M 258.005722 170.425946 
L 274.475616 170.425946 
" clip-path="url(#pf0d64951c9)" style="fill: none; stroke: #006ba4; stroke-width: 1.5"/>
   </g>
   <g id="patch_3">
    <path d="M 40.603125 232.704 
L 40.603125 33.12 
" style="fill: none; stroke: #000000; stroke-width: 1.5; stroke-linejoin: miter; stroke-linecap: square"/>
   </g>
   <g id="patch_4">
    <path d="M 294.239489 232.704 
L 294.239489 33.12 
" style="fill: none; stroke: #000000; stroke-width: 1.5; stroke-linejoin: miter; stroke-linecap: square"/>
   </g>
   <g id="patch_5">
    <path d="M 40.603125 232.704 
L 294.239489 232.704 
" style="fill: none; stroke: #000000; stroke-width: 1.5; stroke-linejoin: miter; stroke-linecap: square"/>
   </g>
   <g id="patch_6">
    <path d="M 40.603125 33.12 
L 294.239489 33.12 
" style="fill: none; stroke: #000000; stroke-width: 1.5; stroke-linejoin: miter; stroke-linecap: square"/>
   </g>
   <g id="text_9">
    <!-- Synthetic Data -->
    <g transform="translate(122.860994 27.12)scale(0.12 -0.12)">
     <defs>
      <path id="DejaVuSans-79" d="M 2059 -325 
Q 1816 -950 1584 -1140 
Q 1353 -1331 966 -1331 
L 506 -1331 
L 506 -850 
L 844 -850 
Q 1081 -850 1212 -737 
Q 1344 -625 1503 -206 
L 1606 56 
L 191 3500 
L 800 3500 
L 1894 763 
L 2988 3500 
L 3597 3500 
L 2059 -325 
z
" transform="scale(0.015625)"/>
      <path id="DejaVuSans-68" d="M 3513 2113 
L 3513 0 
L 2938 0 
L 2938 2094 
Q 2938 2591 2744 2837 
Q 2550 3084 2163 3084 
Q 1697 3084 1428 2787 
Q 1159 2491 1159 1978 
L 1159 0 
L 581 0 
L 581 4863 
L 1159 4863 
L 1159 2956 
Q 1366 3272 1645 3428 
Q 1925 3584 2291 3584 
Q 2894 3584 3203 3211 
Q 3513 2838 3513 2113 
z
" transform="scale(0.015625)"/>
     </defs>
     <use xlink:href="#DejaVuSans-53"/>
     <use xlink:href="#DejaVuSans-79" x="63.476562"/>
     <use xlink:href="#DejaVuSans-6e" x="122.65625"/>
     <use xlink:href="#DejaVuSans-74" x="186.035156"/>
     <use xlink:href="#DejaVuSans-68" x="225.244141"/>
     <use xlink:href="#DejaVuSans-65" x="288.623047"/>
     <use xlink:href="#DejaVuSans-74" x="350.146484"/>
     <use xlink:href="#DejaVuSans-69" x="389.355469"/>
     <use xlink:href="#DejaVuSans-63" x="417.138672"/>
     <use xlink:href="#DejaVuSans-20" x="472.119141"/>
     <use xlink:href="#DejaVuSans-44" x="503.90625"/>
     <use xlink:href="#DejaVuSans-61" x="580.908203"/>
     <use xlink:href="#DejaVuSans-74" x="642.1875"/>
     <use xlink:href="#DejaVuSans-61" x="681.396484"/>
    </g>
   </g>
  </g>
  <g id="axes_2">
   <g id="patch_7">
    <path d="M 344.966761 232.704 
L 598.603125 232.704 
L 598.603125 33.12 
L 344.966761 33.12 
z
" style="fill: #ffffff"/>
   </g>
   <g id="PolyCollection_5">
    <path d="M 381.492191 223.076288 
L 364.438971 223.076288 
L 363.990715 221.249174 
L 363.54704 219.42206 
L 363.109682 217.594946 
L 362.680231 215.767832 
L 362.260121 213.940718 
L 361.850623 212.113604 
L 361.452839 210.28649 
L 361.067709 208.459376 
L 360.696013 206.632262 
L 360.33839 204.805148 
L 359.995343 202.978034 
L 359.667265 201.15092 
L 359.354451 199.323806 
L 359.057122 197.496692 
L 358.775439 195.669578 
L 358.509524 193.842464 
L 358.259477 192.01535 
L 358.025388 190.188236 
L 357.807349 188.361122 
L 357.605464 186.534008 
L 357.419854 184.706893 
L 357.25066 182.879779 
L 357.098044 181.052665 
L 356.962184 179.225551 
L 356.84327 177.398437 
L 356.7415 175.571323 
L 356.657064 173.744209 
L 356.590139 171.917095 
L 356.540872 170.089981 
L 356.509371 168.262867 
L 356.495687 166.435753 
L 356.499804 164.608639 
L 356.521621 162.781525 
L 356.560939 160.954411 
L 356.617448 159.127297 
L 356.690715 157.300183 
L 356.780171 155.473069 
L 356.885102 153.645955 
L 357.004645 151.818841 
L 357.137775 149.991727 
L 357.283312 148.164613 
L 357.439914 146.337499 
L 357.606086 144.510385 
L 357.780186 142.683271 
L 357.960437 140.856157 
L 358.144942 139.029043 
L 358.331704 137.201929 
L 358.518648 135.374815 
L 358.70365 133.547701 
L 358.884563 131.720587 
L 359.059254 129.893473 
L 359.225631 128.066359 
L 359.381687 126.239245 
L 359.52553 124.412131 
L 359.655419 122.585017 
L 359.769803 120.757903 
L 359.867347 118.930789 
L 359.946967 117.103675 
L 360.007852 115.276561 
L 360.049488 113.449447 
L 360.071676 111.622333 
L 360.074538 109.795219 
L 360.058529 107.968105 
L 360.024436 106.140991 
L 359.97337 104.313877 
L 359.906757 102.486763 
L 359.826322 100.659649 
L 359.734069 98.832535 
L 359.632251 97.005421 
L 359.523347 95.178307 
L 359.410027 93.351193 
L 359.295112 91.524079 
L 359.181545 89.696964 
L 359.072345 87.86985 
L 358.970571 86.042736 
L 358.879277 84.215622 
L 358.801477 82.388508 
L 358.740098 80.561394 
L 358.697944 78.73428 
L 358.677656 76.907166 
L 358.681673 75.080052 
L 358.712196 73.252938 
L 358.771159 71.425824 
L 358.860191 69.59871 
L 358.980592 67.771596 
L 359.13331 65.944482 
L 359.318919 64.117368 
L 359.537605 62.290254 
L 359.789157 60.46314 
L 360.072962 58.636026 
L 360.388011 56.808912 
L 360.732903 54.981798 
L 361.105868 53.154684 
L 361.504785 51.32757 
L 361.927215 49.500456 
L 362.370432 47.673342 
L 362.831473 45.846228 
L 363.307175 44.019114 
L 363.794234 42.192 
L 382.136928 42.192 
L 382.136928 42.192 
L 382.623986 44.019114 
L 383.099689 45.846228 
L 383.560729 47.673342 
L 384.003947 49.500456 
L 384.426376 51.32757 
L 384.825293 53.154684 
L 385.198259 54.981798 
L 385.543151 56.808912 
L 385.858199 58.636026 
L 386.142005 60.46314 
L 386.393556 62.290254 
L 386.612242 64.117368 
L 386.797851 65.944482 
L 386.95057 67.771596 
L 387.070971 69.59871 
L 387.160002 71.425824 
L 387.218965 73.252938 
L 387.249489 75.080052 
L 387.253505 76.907166 
L 387.233217 78.73428 
L 387.191063 80.561394 
L 387.129684 82.388508 
L 387.051884 84.215622 
L 386.960591 86.042736 
L 386.858816 87.86985 
L 386.749617 89.696964 
L 386.63605 91.524079 
L 386.521135 93.351193 
L 386.407814 95.178307 
L 386.29891 97.005421 
L 386.197093 98.832535 
L 386.104839 100.659649 
L 386.024404 102.486763 
L 385.957791 104.313877 
L 385.906725 106.140991 
L 385.872632 107.968105 
L 385.856624 109.795219 
L 385.859486 111.622333 
L 385.881673 113.449447 
L 385.92331 115.276561 
L 385.984195 117.103675 
L 386.063814 118.930789 
L 386.161358 120.757903 
L 386.275742 122.585017 
L 386.405632 124.412131 
L 386.549474 126.239245 
L 386.70553 128.066359 
L 386.871908 129.893473 
L 387.046598 131.720587 
L 387.227512 133.547701 
L 387.412514 135.374815 
L 387.599458 137.201929 
L 387.786219 139.029043 
L 387.970724 140.856157 
L 388.150975 142.683271 
L 388.325075 144.510385 
L 388.491247 146.337499 
L 388.647849 148.164613 
L 388.793386 149.991727 
L 388.926517 151.818841 
L 389.046059 153.645955 
L 389.150991 155.473069 
L 389.240447 157.300183 
L 389.313714 159.127297 
L 389.370223 160.954411 
L 389.409541 162.781525 
L 389.431357 164.608639 
L 389.435474 166.435753 
L 389.421791 168.262867 
L 389.39029 170.089981 
L 389.341023 171.917095 
L 389.274097 173.744209 
L 389.189661 175.571323 
L 389.087891 177.398437 
L 388.968978 179.225551 
L 388.833118 181.052665 
L 388.680501 182.879779 
L 388.511307 184.706893 
L 388.325697 186.534008 
L 388.123813 188.361122 
L 387.905774 190.188236 
L 387.671684 192.01535 
L 387.421637 193.842464 
L 387.155723 195.669578 
L 386.87404 197.496692 
L 386.57671 199.323806 
L 386.263897 201.15092 
L 385.935818 202.978034 
L 385.592772 204.805148 
L 385.235148 206.632262 
L 384.863453 208.459376 
L 384.478322 210.28649 
L 384.080538 212.113604 
L 383.67104 213.940718 
L 383.250931 215.767832 
L 382.821479 217.594946 
L 382.384121 219.42206 
L 381.940447 221.249174 
L 381.492191 223.076288 
z
" clip-path="url(#p0b186836f0)" style="fill: #006ba4; fill-opacity: 0.3"/>
   </g>
   <g id="PolyCollection_6">
    <path d="M 446.047522 221.687008 
L 431.642789 221.687008 
L 431.137463 220.039518 
L 430.628243 218.392028 
L 430.11723 216.744538 
L 429.606451 215.097048 
L 429.097858 213.449558 
L 428.593341 211.802068 
L 428.094745 210.154578 
L 427.603891 208.507088 
L 427.122605 206.859598 
L 426.652747 205.212109 
L 426.196227 203.564619 
L 425.75503 201.917129 
L 425.331225 200.269639 
L 424.926964 198.622149 
L 424.544473 196.974659 
L 424.186034 195.327169 
L 423.853947 193.679679 
L 423.550492 192.032189 
L 423.277876 190.384699 
L 423.038175 188.73721 
L 422.833271 187.08972 
L 422.664788 185.44223 
L 422.534033 183.79474 
L 422.441935 182.14725 
L 422.388998 180.49976 
L 422.375262 178.85227 
L 422.400279 177.20478 
L 422.463102 175.55729 
L 422.56229 173.9098 
L 422.695933 172.26231 
L 422.861692 170.614821 
L 423.05685 168.967331 
L 423.278385 167.319841 
L 423.523045 165.672351 
L 423.787438 164.024861 
L 424.06812 162.377371 
L 424.361685 160.729881 
L 424.664854 159.082391 
L 424.974552 157.434901 
L 425.287974 155.787411 
L 425.602642 154.139921 
L 425.916444 152.492432 
L 426.227652 150.844942 
L 426.534935 149.197452 
L 426.837341 147.549962 
L 427.134282 145.902472 
L 427.425491 144.254982 
L 427.710982 142.607492 
L 427.990995 140.960002 
L 428.265946 139.312512 
L 428.536361 137.665022 
L 428.802831 136.017533 
L 429.065953 134.370043 
L 429.326284 132.722553 
L 429.584301 131.075063 
L 429.840362 129.427573 
L 430.094681 127.780083 
L 430.347304 126.132593 
L 430.598098 124.485103 
L 430.84674 122.837613 
L 431.092725 121.190123 
L 431.33537 119.542633 
L 431.573832 117.895144 
L 431.807135 116.247654 
L 432.034199 114.600164 
L 432.25388 112.952674 
L 432.465019 111.305184 
L 432.666486 109.657694 
L 432.857235 108.010204 
L 433.036359 106.362714 
L 433.20314 104.715224 
L 433.357096 103.067734 
L 433.498023 101.420244 
L 433.626024 99.772755 
L 433.741531 98.125265 
L 433.845307 96.477775 
L 433.938438 94.830285 
L 434.022312 93.182795 
L 434.098583 91.535305 
L 434.169115 89.887815 
L 434.235929 88.240325 
L 434.301131 86.592835 
L 434.36684 84.945345 
L 434.435118 83.297855 
L 434.507893 81.650366 
L 434.586896 80.002876 
L 434.673607 78.355386 
L 434.769203 76.707896 
L 434.874528 75.060406 
L 434.990071 73.412916 
L 435.115965 71.765426 
L 435.251985 70.117936 
L 435.39758 68.470446 
L 435.551895 66.822956 
L 435.713816 65.175467 
L 435.882015 63.527977 
L 436.055004 61.880487 
L 436.231188 60.232997 
L 436.408915 58.585507 
L 441.281397 58.585507 
L 441.281397 58.585507 
L 441.459123 60.232997 
L 441.635307 61.880487 
L 441.808296 63.527977 
L 441.976496 65.175467 
L 442.138416 66.822956 
L 442.292731 68.470446 
L 442.438326 70.117936 
L 442.574347 71.765426 
L 442.70024 73.412916 
L 442.815784 75.060406 
L 442.921109 76.707896 
L 443.016704 78.355386 
L 443.103415 80.002876 
L 443.182419 81.650366 
L 443.255193 83.297855 
L 443.323471 84.945345 
L 443.389181 86.592835 
L 443.454383 88.240325 
L 443.521197 89.887815 
L 443.591729 91.535305 
L 443.667999 93.182795 
L 443.751874 94.830285 
L 443.845005 96.477775 
L 443.94878 98.125265 
L 444.064287 99.772755 
L 444.192289 101.420244 
L 444.333216 103.067734 
L 444.487172 104.715224 
L 444.653953 106.362714 
L 444.833076 108.010204 
L 445.023825 109.657694 
L 445.225292 111.305184 
L 445.436431 112.952674 
L 445.656113 114.600164 
L 445.883176 116.247654 
L 446.116479 117.895144 
L 446.354941 119.542633 
L 446.597586 121.190123 
L 446.843571 122.837613 
L 447.092214 124.485103 
L 447.343007 126.132593 
L 447.59563 127.780083 
L 447.849949 129.427573 
L 448.10601 131.075063 
L 448.364027 132.722553 
L 448.624359 134.370043 
L 448.88748 136.017533 
L 449.15395 137.665022 
L 449.424366 139.312512 
L 449.699316 140.960002 
L 449.97933 142.607492 
L 450.264821 144.254982 
L 450.55603 145.902472 
L 450.85297 147.549962 
L 451.155377 149.197452 
L 451.462659 150.844942 
L 451.773868 152.492432 
L 452.087669 154.139921 
L 452.402338 155.787411 
L 452.71576 157.434901 
L 453.025457 159.082391 
L 453.328626 160.729881 
L 453.622192 162.377371 
L 453.902873 164.024861 
L 454.167266 165.672351 
L 454.411926 167.319841 
L 454.633461 168.967331 
L 454.828619 170.614821 
L 454.994378 172.26231 
L 455.128022 173.9098 
L 455.22721 175.55729 
L 455.290032 177.20478 
L 455.315049 178.85227 
L 455.301314 180.49976 
L 455.248377 182.14725 
L 455.156278 183.79474 
L 455.025523 185.44223 
L 454.857041 187.08972 
L 454.652136 188.73721 
L 454.412435 190.384699 
L 454.139819 192.032189 
L 453.836364 193.679679 
L 453.504277 195.327169 
L 453.145838 196.974659 
L 452.763348 198.622149 
L 452.359086 200.269639 
L 451.935281 201.917129 
L 451.494085 203.564619 
L 451.037565 205.212109 
L 450.567706 206.859598 
L 450.086421 208.507088 
L 449.595567 210.154578 
L 449.09697 211.802068 
L 448.592453 213.449558 
L 448.083861 215.097048 
L 447.573082 216.744538 
L 447.062069 218.392028 
L 446.552848 220.039518 
L 446.047522 221.687008 
z
" clip-path="url(#p0b186836f0)" style="fill: #006ba4; fill-opacity: 0.3"/>
   </g>
   <g id="PolyCollection_7">
    <path d="M 512.567352 223.632 
L 496.882109 223.632 
L 496.265629 221.799273 
L 495.646393 219.966545 
L 495.029422 218.133818 
L 494.419756 216.301091 
L 493.82233 214.468364 
L 493.241863 212.635636 
L 492.682753 210.802909 
L 492.148983 208.970182 
L 491.644035 207.137455 
L 491.17084 205.304727 
L 490.731727 203.472 
L 490.328417 201.639273 
L 489.962027 199.806545 
L 489.633099 197.973818 
L 489.341658 196.141091 
L 489.087274 194.308364 
L 488.869153 192.475636 
L 488.686228 190.642909 
L 488.537253 188.810182 
L 488.420902 186.977455 
L 488.335852 185.144727 
L 488.280863 183.312 
L 488.254837 181.479273 
L 488.256857 179.646545 
L 488.28621 177.813818 
L 488.342386 175.981091 
L 488.425062 174.148364 
L 488.53406 172.315636 
L 488.669303 170.482909 
L 488.830752 168.650182 
L 489.01834 166.817455 
L 489.231911 164.984727 
L 489.471153 163.152 
L 489.735546 161.319273 
L 490.024316 159.486545 
L 490.336405 157.653818 
L 490.67045 155.821091 
L 491.024782 153.988364 
L 491.397428 152.155636 
L 491.786138 150.322909 
L 492.188408 148.490182 
L 492.601522 146.657455 
L 493.022592 144.824727 
L 493.448603 142.992 
L 493.876463 141.159273 
L 494.303052 139.326545 
L 494.725265 137.493818 
L 495.140061 135.661091 
L 495.544508 133.828364 
L 495.935824 131.995636 
L 496.311416 130.162909 
L 496.668922 128.330182 
L 497.006246 126.497455 
L 497.321589 124.664727 
L 497.613484 122.832 
L 497.880818 120.999273 
L 498.122855 119.166545 
L 498.339251 117.333818 
L 498.530061 115.501091 
L 498.695739 113.668364 
L 498.837126 111.835636 
L 498.955434 110.002909 
L 499.052218 108.170182 
L 499.129335 106.337455 
L 499.188904 104.504727 
L 499.233251 102.672 
L 499.264856 100.839273 
L 499.286292 99.006545 
L 499.300168 97.173818 
L 499.309068 95.341091 
L 499.315499 93.508364 
L 499.321839 91.675636 
L 499.330297 89.842909 
L 499.342872 88.010182 
L 499.361333 86.177455 
L 499.387192 84.344727 
L 499.421699 82.512 
L 499.465838 80.679273 
L 499.520326 78.846545 
L 499.585631 77.013818 
L 499.66198 75.181091 
L 499.749384 73.348364 
L 499.847654 71.515636 
L 499.956429 69.682909 
L 500.075199 67.850182 
L 500.203328 66.017455 
L 500.340081 64.184727 
L 500.484642 62.352 
L 500.636141 60.519273 
L 500.793665 58.686545 
L 500.956279 56.853818 
L 501.123039 55.021091 
L 501.293001 53.188364 
L 501.465232 51.355636 
L 501.638819 49.522909 
L 501.812866 47.690182 
L 501.986509 45.857455 
L 502.158909 44.024727 
L 502.32926 42.192 
L 507.120202 42.192 
L 507.120202 42.192 
L 507.290552 44.024727 
L 507.462952 45.857455 
L 507.636595 47.690182 
L 507.810643 49.522909 
L 507.984229 51.355636 
L 508.156461 53.188364 
L 508.326423 55.021091 
L 508.493182 56.853818 
L 508.655796 58.686545 
L 508.81332 60.519273 
L 508.964819 62.352 
L 509.109381 64.184727 
L 509.246133 66.017455 
L 509.374262 67.850182 
L 509.493032 69.682909 
L 509.601807 71.515636 
L 509.700077 73.348364 
L 509.787481 75.181091 
L 509.86383 77.013818 
L 509.929135 78.846545 
L 509.983624 80.679273 
L 510.027762 82.512 
L 510.062269 84.344727 
L 510.088129 86.177455 
L 510.106589 88.010182 
L 510.119165 89.842909 
L 510.127622 91.675636 
L 510.133963 93.508364 
L 510.140394 95.341091 
L 510.149294 97.173818 
L 510.16317 99.006545 
L 510.184606 100.839273 
L 510.216211 102.672 
L 510.260557 104.504727 
L 510.320126 106.337455 
L 510.397243 108.170182 
L 510.494027 110.002909 
L 510.612336 111.835636 
L 510.753723 113.668364 
L 510.9194 115.501091 
L 511.11021 117.333818 
L 511.326606 119.166545 
L 511.568643 120.999273 
L 511.835977 122.832 
L 512.127872 124.664727 
L 512.443215 126.497455 
L 512.780539 128.330182 
L 513.138046 130.162909 
L 513.513638 131.995636 
L 513.904953 133.828364 
L 514.3094 135.661091 
L 514.724197 137.493818 
L 515.146409 139.326545 
L 515.572998 141.159273 
L 516.000858 142.992 
L 516.426869 144.824727 
L 516.847939 146.657455 
L 517.261053 148.490182 
L 517.663324 150.322909 
L 518.052033 152.155636 
L 518.42468 153.988364 
L 518.779011 155.821091 
L 519.113056 157.653818 
L 519.425145 159.486545 
L 519.713915 161.319273 
L 519.978308 163.152 
L 520.21755 164.984727 
L 520.431121 166.817455 
L 520.61871 168.650182 
L 520.780158 170.482909 
L 520.915401 172.315636 
L 521.024399 174.148364 
L 521.107075 175.981091 
L 521.163252 177.813818 
L 521.192604 179.646545 
L 521.194624 181.479273 
L 521.168598 183.312 
L 521.11361 185.144727 
L 521.02856 186.977455 
L 520.912208 188.810182 
L 520.763233 190.642909 
L 520.580308 192.475636 
L 520.362188 194.308364 
L 520.107804 196.141091 
L 519.816362 197.973818 
L 519.487434 199.806545 
L 519.121044 201.639273 
L 518.717734 203.472 
L 518.278622 205.304727 
L 517.805426 207.137455 
L 517.300479 208.970182 
L 516.766708 210.802909 
L 516.207599 212.635636 
L 515.627132 214.468364 
L 515.029705 216.301091 
L 514.420039 218.133818 
L 513.803069 219.966545 
L 513.183832 221.799273 
L 512.567352 223.632 
z
" clip-path="url(#p0b186836f0)" style="fill: #006ba4; fill-opacity: 0.3"/>
   </g>
   <g id="PolyCollection_8">
    <path d="M 582.690205 222.798432 
L 558.518406 222.798432 
L 557.845151 220.974124 
L 557.21223 219.149817 
L 556.626388 217.32551 
L 556.093519 215.501202 
L 555.618596 213.676895 
L 555.205623 211.852587 
L 554.85763 210.02828 
L 554.576694 208.203973 
L 554.363983 206.379665 
L 554.219808 204.555358 
L 554.143688 202.731051 
L 554.134412 200.906743 
L 554.190098 199.082436 
L 554.308244 197.258128 
L 554.48577 195.433821 
L 554.719057 193.609514 
L 555.003975 191.785206 
L 555.335922 189.960899 
L 555.709853 188.136591 
L 556.120334 186.312284 
L 556.561596 184.487977 
L 557.027609 182.663669 
L 557.512174 180.839362 
L 558.009024 179.015054 
L 558.511944 177.190747 
L 559.014898 175.36644 
L 559.51215 173.542132 
L 559.998396 171.717825 
L 560.468877 169.893517 
L 560.919477 168.06921 
L 561.346806 166.244903 
L 561.748253 164.420595 
L 562.122014 162.596288 
L 562.467094 160.771981 
L 562.783276 158.947673 
L 563.071072 157.123366 
L 563.331649 155.299058 
L 563.566734 153.474751 
L 563.778514 151.650444 
L 563.969523 149.826136 
L 564.142531 148.001829 
L 564.30043 146.177521 
L 564.446132 144.353214 
L 564.582475 142.528907 
L 564.712142 140.704599 
L 564.837587 138.880292 
L 564.960986 137.055984 
L 565.084198 135.231677 
L 565.20873 133.40737 
L 565.335735 131.583062 
L 565.466001 129.758755 
L 565.599964 127.934447 
L 565.737727 126.11014 
L 565.879086 124.285833 
L 566.023566 122.461525 
L 566.170462 120.637218 
L 566.318886 118.81291 
L 566.467819 116.988603 
L 566.616165 115.164296 
L 566.762808 113.339988 
L 566.906663 111.515681 
L 567.046731 109.691374 
L 567.182139 107.867066 
L 567.312183 106.042759 
L 567.436352 104.218451 
L 567.554339 102.394144 
L 567.666053 100.569837 
L 567.771601 98.745529 
L 567.871267 96.921222 
L 567.965486 95.096914 
L 568.054795 93.272607 
L 568.139796 91.4483 
L 568.221107 89.623992 
L 568.299318 87.799685 
L 568.374956 85.975377 
L 568.448451 84.15107 
L 568.520122 82.326763 
L 568.590166 80.502455 
L 568.65866 78.678148 
L 568.725578 76.85384 
L 568.790815 75.029533 
L 568.854209 73.205226 
L 568.915582 71.380918 
L 568.974765 69.556611 
L 569.031633 67.732303 
L 569.086129 65.907996 
L 569.138281 64.083689 
L 569.18821 62.259381 
L 569.236135 60.435074 
L 569.282362 58.610767 
L 569.32727 56.786459 
L 569.371287 54.962152 
L 569.414869 53.137844 
L 569.458466 51.313537 
L 569.5025 49.48923 
L 569.547335 47.664922 
L 569.59326 45.840615 
L 569.640464 44.016307 
L 569.689035 42.192 
L 571.519577 42.192 
L 571.519577 42.192 
L 571.568147 44.016307 
L 571.615352 45.840615 
L 571.661276 47.664922 
L 571.706112 49.48923 
L 571.750146 51.313537 
L 571.793743 53.137844 
L 571.837324 54.962152 
L 571.881341 56.786459 
L 571.926249 58.610767 
L 571.972476 60.435074 
L 572.020402 62.259381 
L 572.070331 64.083689 
L 572.122482 65.907996 
L 572.176978 67.732303 
L 572.233846 69.556611 
L 572.293029 71.380918 
L 572.354402 73.205226 
L 572.417796 75.029533 
L 572.483033 76.85384 
L 572.549952 78.678148 
L 572.618446 80.502455 
L 572.688489 82.326763 
L 572.76016 84.15107 
L 572.833656 85.975377 
L 572.909293 87.799685 
L 572.987504 89.623992 
L 573.068815 91.4483 
L 573.153816 93.272607 
L 573.243125 95.096914 
L 573.337344 96.921222 
L 573.437011 98.745529 
L 573.542558 100.569837 
L 573.654272 102.394144 
L 573.77226 104.218451 
L 573.896428 106.042759 
L 574.026472 107.867066 
L 574.161881 109.691374 
L 574.301948 111.515681 
L 574.445803 113.339988 
L 574.592446 115.164296 
L 574.740792 116.988603 
L 574.889725 118.81291 
L 575.038149 120.637218 
L 575.185045 122.461525 
L 575.329525 124.285833 
L 575.470885 126.11014 
L 575.608648 127.934447 
L 575.742611 129.758755 
L 575.872876 131.583062 
L 575.999881 133.40737 
L 576.124414 135.231677 
L 576.247625 137.055984 
L 576.371025 138.880292 
L 576.49647 140.704599 
L 576.626136 142.528907 
L 576.76248 144.353214 
L 576.908182 146.177521 
L 577.066081 148.001829 
L 577.239088 149.826136 
L 577.430098 151.650444 
L 577.641878 153.474751 
L 577.876962 155.299058 
L 578.137539 157.123366 
L 578.425335 158.947673 
L 578.741517 160.771981 
L 579.086597 162.596288 
L 579.460359 164.420595 
L 579.861806 166.244903 
L 580.289135 168.06921 
L 580.739735 169.893517 
L 581.210215 171.717825 
L 581.696461 173.542132 
L 582.193713 175.36644 
L 582.696667 177.190747 
L 583.199588 179.015054 
L 583.696438 180.839362 
L 584.181002 182.663669 
L 584.647015 184.487977 
L 585.088277 186.312284 
L 585.498758 188.136591 
L 585.87269 189.960899 
L 586.204636 191.785206 
L 586.489555 193.609514 
L 586.722841 195.433821 
L 586.900368 197.258128 
L 587.018513 199.082436 
L 587.074199 200.906743 
L 587.064923 202.731051 
L 586.988803 204.555358 
L 586.844628 206.379665 
L 586.631917 208.203973 
L 586.350982 210.02828 
L 586.002988 211.852587 
L 585.590015 213.676895 
L 585.115092 215.501202 
L 584.582223 217.32551 
L 583.996381 219.149817 
L 583.36346 220.974124 
L 582.690205 222.798432 
z
" clip-path="url(#p0b186836f0)" style="fill: #006ba4; fill-opacity: 0.3"/>
   </g>
   <g id="matplotlib.axis_3">
    <g id="xtick_5">
     <g id="line2d_8">
      <g>
       <use xlink:href="#mba4a32621f" x="372.965581" y="232.704" style="stroke: #000000; stroke-width: 1.2"/>
      </g>
     </g>
     <g id="text_10">
      <!-- Trivial -->
      <g transform="translate(358.403081 247.302437)scale(0.1 -0.1)">
       <use xlink:href="#DejaVuSans-54"/>
       <use xlink:href="#DejaVuSans-72" x="46.333984"/>
       <use xlink:href="#DejaVuSans-69" x="87.447266"/>
       <use xlink:href="#DejaVuSans-76" x="115.230469"/>
       <use xlink:href="#DejaVuSans-69" x="174.410156"/>
       <use xlink:href="#DejaVuSans-61" x="202.193359"/>
       <use xlink:href="#DejaVuSans-6c" x="263.472656"/>
      </g>
     </g>
    </g>
    <g id="xtick_6">
     <g id="line2d_9">
      <g>
       <use xlink:href="#mba4a32621f" x="438.845156" y="232.704" style="stroke: #000000; stroke-width: 1.2"/>
      </g>
     </g>
     <g id="text_11">
      <!-- Training Data -->
      <g transform="translate(405.592031 247.302437)scale(0.1 -0.1)">
       <use xlink:href="#DejaVuSans-54"/>
       <use xlink:href="#DejaVuSans-72" x="46.333984"/>
       <use xlink:href="#DejaVuSans-61" x="87.447266"/>
       <use xlink:href="#DejaVuSans-69" x="148.726562"/>
       <use xlink:href="#DejaVuSans-6e" x="176.509766"/>
       <use xlink:href="#DejaVuSans-69" x="239.888672"/>
       <use xlink:href="#DejaVuSans-6e" x="267.671875"/>
       <use xlink:href="#DejaVuSans-67" x="331.050781"/>
       <use xlink:href="#DejaVuSans-20" x="394.527344"/>
       <use xlink:href="#DejaVuSans-44" x="426.314453"/>
       <use xlink:href="#DejaVuSans-61" x="503.316406"/>
       <use xlink:href="#DejaVuSans-74" x="564.595703"/>
       <use xlink:href="#DejaVuSans-61" x="603.804688"/>
      </g>
     </g>
    </g>
    <g id="xtick_7">
     <g id="line2d_10">
      <g>
       <use xlink:href="#mba4a32621f" x="504.724731" y="232.704" style="stroke: #000000; stroke-width: 1.2"/>
      </g>
     </g>
     <g id="text_12">
      <!-- Jackknife -->
      <g transform="translate(482.251293 247.302437)scale(0.1 -0.1)">
       <use xlink:href="#DejaVuSans-4a"/>
       <use xlink:href="#DejaVuSans-61" x="29.492188"/>
       <use xlink:href="#DejaVuSans-63" x="90.771484"/>
       <use xlink:href="#DejaVuSans-6b" x="145.751953"/>
       <use xlink:href="#DejaVuSans-6b" x="203.662109"/>
       <use xlink:href="#DejaVuSans-6e" x="261.572266"/>
       <use xlink:href="#DejaVuSans-69" x="324.951172"/>
       <use xlink:href="#DejaVuSans-66" x="352.734375"/>
       <use xlink:href="#DejaVuSans-65" x="387.939453"/>
      </g>
     </g>
    </g>
    <g id="xtick_8">
     <g id="line2d_11">
      <g>
       <use xlink:href="#mba4a32621f" x="570.604306" y="232.704" style="stroke: #000000; stroke-width: 1.2"/>
      </g>
     </g>
     <g id="text_13">
      <!-- Bootstrap -->
      <g transform="translate(546.236337 247.302437)scale(0.1 -0.1)">
       <use xlink:href="#DejaVuSans-42"/>
       <use xlink:href="#DejaVuSans-6f" x="68.603516"/>
       <use xlink:href="#DejaVuSans-6f" x="129.785156"/>
       <use xlink:href="#DejaVuSans-74" x="190.966797"/>
       <use xlink:href="#DejaVuSans-73" x="230.175781"/>
       <use xlink:href="#DejaVuSans-74" x="282.275391"/>
       <use xlink:href="#DejaVuSans-72" x="321.484375"/>
       <use xlink:href="#DejaVuSans-61" x="362.597656"/>
       <use xlink:href="#DejaVuSans-70" x="423.876953"/>
      </g>
     </g>
    </g>
   </g>
   <g id="matplotlib.axis_4">
    <g id="ytick_4">
     <g id="line2d_12">
      <g>
       <use xlink:href="#mc3231811bd" x="344.966761" y="224.465568" style="stroke: #000000; stroke-width: 1.2"/>
      </g>
     </g>
     <g id="text_14">
      <!-- 0 -->
      <g transform="translate(331.604261 228.264787)scale(0.1 -0.1)">
       <use xlink:href="#DejaVuSans-30"/>
      </g>
     </g>
    </g>
    <g id="ytick_5">
     <g id="line2d_13">
      <g>
       <use xlink:href="#mc3231811bd" x="344.966761" y="141.108753" style="stroke: #000000; stroke-width: 1.2"/>
      </g>
     </g>
     <g id="text_15">
      <!-- 300 -->
      <g transform="translate(318.879261 144.907972)scale(0.1 -0.1)">
       <use xlink:href="#DejaVuSans-33"/>
       <use xlink:href="#DejaVuSans-30" x="63.623047"/>
       <use xlink:href="#DejaVuSans-30" x="127.246094"/>
      </g>
     </g>
    </g>
    <g id="ytick_6">
     <g id="line2d_14">
      <g>
       <use xlink:href="#mc3231811bd" x="344.966761" y="57.751939" style="stroke: #000000; stroke-width: 1.2"/>
      </g>
     </g>
     <g id="text_16">
      <!-- 600 -->
      <g transform="translate(318.879261 61.551157)scale(0.1 -0.1)">
       <defs>
        <path id="DejaVuSans-36" d="M 2113 2584 
Q 1688 2584 1439 2293 
Q 1191 2003 1191 1497 
Q 1191 994 1439 701 
Q 1688 409 2113 409 
Q 2538 409 2786 701 
Q 3034 994 3034 1497 
Q 3034 2003 2786 2293 
Q 2538 2584 2113 2584 
z
M 3366 4563 
L 3366 3988 
Q 3128 4100 2886 4159 
Q 2644 4219 2406 4219 
Q 1781 4219 1451 3797 
Q 1122 3375 1075 2522 
Q 1259 2794 1537 2939 
Q 1816 3084 2150 3084 
Q 2853 3084 3261 2657 
Q 3669 2231 3669 1497 
Q 3669 778 3244 343 
Q 2819 -91 2113 -91 
Q 1303 -91 875 529 
Q 447 1150 447 2328 
Q 447 3434 972 4092 
Q 1497 4750 2381 4750 
Q 2619 4750 2861 4703 
Q 3103 4656 3366 4563 
z
" transform="scale(0.015625)"/>
       </defs>
       <use xlink:href="#DejaVuSans-36"/>
       <use xlink:href="#DejaVuSans-30" x="63.623047"/>
       <use xlink:href="#DejaVuSans-30" x="127.246094"/>
      </g>
     </g>
    </g>
   </g>
   <g id="LineCollection_3">
    <path d="M 364.730634 138.746977 
L 381.200528 138.746977 
" clip-path="url(#p0b186836f0)" style="fill: none; stroke: #006ba4; stroke-width: 1.5"/>
    <path d="M 430.610209 168.75543 
L 447.080103 168.75543 
" clip-path="url(#p0b186836f0)" style="fill: none; stroke: #006ba4; stroke-width: 1.5"/>
    <path d="M 496.489784 168.06079 
L 512.959678 168.06079 
" clip-path="url(#p0b186836f0)" style="fill: none; stroke: #006ba4; stroke-width: 1.5"/>
    <path d="M 562.369359 189.87249 
L 578.839253 189.87249 
" clip-path="url(#p0b186836f0)" style="fill: none; stroke: #006ba4; stroke-width: 1.5"/>
   </g>
   <g id="LineCollection_4">
    <path d="M 364.730634 220.394977 
L 381.200528 220.394977 
" clip-path="url(#p0b186836f0)" style="fill: none; stroke: #006ba4; stroke-width: 1.5"/>
    <path d="M 364.730634 49.541292 
L 381.200528 49.541292 
" clip-path="url(#p0b186836f0)" style="fill: none; stroke: #006ba4; stroke-width: 1.5"/>
    <path d="M 430.610209 219.144625 
L 447.080103 219.144625 
" clip-path="url(#p0b186836f0)" style="fill: none; stroke: #006ba4; stroke-width: 1.5"/>
    <path d="M 430.610209 76.507222 
L 447.080103 76.507222 
" clip-path="url(#p0b186836f0)" style="fill: none; stroke: #006ba4; stroke-width: 1.5"/>
    <path d="M 496.489784 214.685035 
L 512.959678 214.685035 
" clip-path="url(#p0b186836f0)" style="fill: none; stroke: #006ba4; stroke-width: 1.5"/>
    <path d="M 496.489784 66.740582 
L 512.959678 66.740582 
" clip-path="url(#p0b186836f0)" style="fill: none; stroke: #006ba4; stroke-width: 1.5"/>
    <path d="M 562.369359 222.24272 
L 578.839253 222.24272 
" clip-path="url(#p0b186836f0)" style="fill: none; stroke: #006ba4; stroke-width: 1.5"/>
    <path d="M 562.369359 86.496147 
L 578.839253 86.496147 
" clip-path="url(#p0b186836f0)" style="fill: none; stroke: #006ba4; stroke-width: 1.5"/>
   </g>
   <g id="patch_8">
    <path d="M 344.966761 232.704 
L 344.966761 33.12 
" style="fill: none; stroke: #000000; stroke-width: 1.5; stroke-linejoin: miter; stroke-linecap: square"/>
   </g>
   <g id="patch_9">
    <path d="M 598.603125 232.704 
L 598.603125 33.12 
" style="fill: none; stroke: #000000; stroke-width: 1.5; stroke-linejoin: miter; stroke-linecap: square"/>
   </g>
   <g id="patch_10">
    <path d="M 344.966761 232.704 
L 598.603125 232.704 
" style="fill: none; stroke: #000000; stroke-width: 1.5; stroke-linejoin: miter; stroke-linecap: square"/>
   </g>
   <g id="patch_11">
    <path d="M 344.966761 33.12 
L 598.603125 33.12 
" style="fill: none; stroke: #000000; stroke-width: 1.5; stroke-linejoin: miter; stroke-linecap: square"/>
   </g>
   <g id="text_17">
    <!-- Thermoelectrics Data -->
    <g transform="translate(407.255881 27.12)scale(0.12 -0.12)">
     <use xlink:href="#DejaVuSans-54"/>
     <use xlink:href="#DejaVuSans-68" x="61.083984"/>
     <use xlink:href="#DejaVuSans-65" x="124.462891"/>
     <use xlink:href="#DejaVuSans-72" x="185.986328"/>
     <use xlink:href="#DejaVuSans-6d" x="225.349609"/>
     <use xlink:href="#DejaVuSans-6f" x="322.761719"/>
     <use xlink:href="#DejaVuSans-65" x="383.943359"/>
     <use xlink:href="#DejaVuSans-6c" x="445.466797"/>
     <use xlink:href="#DejaVuSans-65" x="473.25"/>
     <use xlink:href="#DejaVuSans-63" x="534.773438"/>
     <use xlink:href="#DejaVuSans-74" x="589.753906"/>
     <use xlink:href="#DejaVuSans-72" x="628.962891"/>
     <use xlink:href="#DejaVuSans-69" x="670.076172"/>
     <use xlink:href="#DejaVuSans-63" x="697.859375"/>
     <use xlink:href="#DejaVuSans-73" x="752.839844"/>
     <use xlink:href="#DejaVuSans-20" x="804.939453"/>
     <use xlink:href="#DejaVuSans-44" x="836.726562"/>
     <use xlink:href="#DejaVuSans-61" x="913.728516"/>
     <use xlink:href="#DejaVuSans-74" x="975.007812"/>
     <use xlink:href="#DejaVuSans-61" x="1014.216797"/>
    </g>
   </g>
  </g>
  <g id="text_18">
   <!-- Results of Simulated Sequential Learning -->
   <g transform="translate(187.189687 16.318125)scale(0.12 -0.12)">
    <defs>
     <path id="DejaVuSans-71" d="M 947 1747 
Q 947 1113 1208 752 
Q 1469 391 1925 391 
Q 2381 391 2643 752 
Q 2906 1113 2906 1747 
Q 2906 2381 2643 2742 
Q 2381 3103 1925 3103 
Q 1469 3103 1208 2742 
Q 947 2381 947 1747 
z
M 2906 525 
Q 2725 213 2448 61 
Q 2172 -91 1784 -91 
Q 1150 -91 751 415 
Q 353 922 353 1747 
Q 353 2572 751 3078 
Q 1150 3584 1784 3584 
Q 2172 3584 2448 3432 
Q 2725 3281 2906 2969 
L 2906 3500 
L 3481 3500 
L 3481 -1331 
L 2906 -1331 
L 2906 525 
z
" transform="scale(0.015625)"/>
    </defs>
    <use xlink:href="#DejaVuSans-52"/>
    <use xlink:href="#DejaVuSans-65" x="64.982422"/>
    <use xlink:href="#DejaVuSans-73" x="126.505859"/>
    <use xlink:href="#DejaVuSans-75" x="178.605469"/>
    <use xlink:href="#DejaVuSans-6c" x="241.984375"/>
    <use xlink:href="#DejaVuSans-74" x="269.767578"/>
    <use xlink:href="#DejaVuSans-73" x="308.976562"/>
    <use xlink:href="#DejaVuSans-20" x="361.076172"/>
    <use xlink:href="#DejaVuSans-6f" x="392.863281"/>
    <use xlink:href="#DejaVuSans-66" x="454.044922"/>
    <use xlink:href="#DejaVuSans-20" x="489.25"/>
    <use xlink:href="#DejaVuSans-53" x="521.037109"/>
    <use xlink:href="#DejaVuSans-69" x="584.513672"/>
    <use xlink:href="#DejaVuSans-6d" x="612.296875"/>
    <use xlink:href="#DejaVuSans-75" x="709.708984"/>
    <use xlink:href="#DejaVuSans-6c" x="773.087891"/>
    <use xlink:href="#DejaVuSans-61" x="800.871094"/>
    <use xlink:href="#DejaVuSans-74" x="862.150391"/>
    <use xlink:href="#DejaVuSans-65" x="901.359375"/>
    <use xlink:href="#DejaVuSans-64" x="962.882812"/>
    <use xlink:href="#DejaVuSans-20" x="1026.359375"/>
    <use xlink:href="#DejaVuSans-53" x="1058.146484"/>
    <use xlink:href="#DejaVuSans-65" x="1121.623047"/>
    <use xlink:href="#DejaVuSans-71" x="1183.146484"/>
    <use xlink:href="#DejaVuSans-75" x="1246.623047"/>
    <use xlink:href="#DejaVuSans-65" x="1310.001953"/>
    <use xlink:href="#DejaVuSans-6e" x="1371.525391"/>
    <use xlink:href="#DejaVuSans-74" x="1434.904297"/>
    <use xlink:href="#DejaVuSans-69" x="1474.113281"/>
    <use xlink:href="#DejaVuSans-61" x="1501.896484"/>
    <use xlink:href="#DejaVuSans-6c" x="1563.175781"/>
    <use xlink:href="#DejaVuSans-20" x="1590.958984"/>
    <use xlink:href="#DejaVuSans-4c" x="1622.746094"/>
    <use xlink:href="#DejaVuSans-65" x="1676.708984"/>
    <use xlink:href="#DejaVuSans-61" x="1738.232422"/>
    <use xlink:href="#DejaVuSans-72" x="1799.511719"/>
    <use xlink:href="#DejaVuSans-6e" x="1838.875"/>
    <use xlink:href="#DejaVuSans-69" x="1902.253906"/>
    <use xlink:href="#DejaVuSans-6e" x="1930.037109"/>
    <use xlink:href="#DejaVuSans-67" x="1993.416016"/>
   </g>
  </g>
 </g>
 <defs>
  <clipPath id="pf0d64951c9">
   <rect x="40.603125" y="33.12" width="253.636364" height="199.584"/>
  </clipPath>
  <clipPath id="p0b186836f0">
   <rect x="344.966761" y="33.12" width="253.636364" height="199.584"/>
  </clipPath>
 </defs>
</svg>
